Doto-BlackSquare.ufo
<glyph name="quotedbl" format="2">
  <advance width="600"/>
  <unicode hex="0022"/>
  <outline>
    <contour>
      <point x="106" y="695" type="line" smooth="yes"/>
      <point x="194" y="695" type="line" smooth="yes"/>
      <point x="195" y="695"/>
      <point x="195" y="695"/>
      <point x="195" y="694" type="curve" smooth="yes"/>
      <point x="195" y="606" type="line" smooth="yes"/>
      <point x="195" y="605"/>
      <point x="195" y="605"/>
      <point x="194" y="605" type="curve" smooth="yes"/>
      <point x="106" y="605" type="line" smooth="yes"/>
      <point x="105" y="605"/>
      <point x="105" y="605"/>
      <point x="105" y="606" type="curve" smooth="yes"/>
      <point x="105" y="694" type="line" smooth="yes"/>
      <point x="105" y="695"/>
      <point x="105" y="695"/>
      <point x="106" y="695" type="curve" smooth="yes"/>
    </contour>
    <contour>
      <point x="306" y="695" type="line" smooth="yes"/>
      <point x="394" y="695" type="line" smooth="yes"/>
      <point x="395" y="695"/>
      <point x="395" y="695"/>
      <point x="395" y="694" type="curve" smooth="yes"/>
      <point x="395" y="606" type="line" smooth="yes"/>
      <point x="395" y="605"/>
      <point x="395" y="605"/>
      <point x="394" y="605" type="curve" smooth="yes"/>
      <point x="306" y="605" type="line" smooth="yes"/>
      <point x="305" y="605"/>
      <point x="305" y="605"/>
      <point x="305" y="606" type="curve" smooth="yes"/>
      <point x="305" y="694" type="line" smooth="yes"/>
      <point x="305" y="695"/>
      <point x="305" y="695"/>
      <point x="306" y="695" type="curve" smooth="yes"/>
    </contour>
    <contour>
      <point x="106" y="595" type="line" smooth="yes"/>
      <point x="194" y="595" type="line" smooth="yes"/>
      <point x="195" y="595"/>
      <point x="195" y="595"/>
      <point x="195" y="594" type="curve" smooth="yes"/>
      <point x="195" y="506" type="line" smooth="yes"/>
      <point x="195" y="505"/>
      <point x="195" y="505"/>
      <point x="194" y="505" type="curve" smooth="yes"/>
      <point x="106" y="505" type="line" smooth="yes"/>
      <point x="105" y="505"/>
      <point x="105" y="505"/>
      <point x="105" y="506" type="curve" smooth="yes"/>
      <point x="105" y="594" type="line" smooth="yes"/>
      <point x="105" y="595"/>
      <point x="105" y="595"/>
      <point x="106" y="595" type="curve" smooth="yes"/>
    </contour>
    <contour>
      <point x="306" y="595" type="line" smooth="yes"/>
      <point x="394" y="595" type="line" smooth="yes"/>
      <point x="395" y="595"/>
      <point x="395" y="595"/>
      <point x="395" y="594" type="curve" smooth="yes"/>
      <point x="395" y="506" type="line" smooth="yes"/>
      <point x="395" y="505"/>
      <point x="395" y="505"/>
      <point x="394" y="505" type="curve" smooth="yes"/>
      <point x="306" y="505" type="line" smooth="yes"/>
      <point x="305" y="505"/>
      <point x="305" y="505"/>
      <point x="305" y="506" type="curve" smooth="yes"/>
      <point x="305" y="594" type="line" smooth="yes"/>
      <point x="305" y="595"/>
      <point x="305" y="595"/>
      <point x="306" y="595" type="curve" smooth="yes"/>
    </contour>
    <contour>
      <point x="106" y="495" type="line" smooth="yes"/>
      <point x="194" y="495" type="line" smooth="yes"/>
      <point x="195" y="495"/>
      <point x="195" y="495"/>
      <point x="195" y="494" type="curve" smooth="yes"/>
      <point x="195" y="406" type="line" smooth="yes"/>
      <point x="195" y="405"/>
      <point x="195" y="405"/>
      <point x="194" y="405" type="curve" smooth="yes"/>
      <point x="106" y="405" type="line" smooth="yes"/>
      <point x="105" y="405"/>
      <point x="105" y="405"/>
      <point x="105" y="406" type="curve" smooth="yes"/>
      <point x="105" y="494" type="line" smooth="yes"/>
      <point x="105" y="495"/>
      <point x="105" y="495"/>
      <point x="106" y="495" type="curve" smooth="yes"/>
    </contour>
    <contour>
      <point x="306" y="495" type="line" smooth="yes"/>
      <point x="394" y="495" type="line" smooth="yes"/>
      <point x="395" y="495"/>
      <point x="395" y="495"/>
      <point x="395" y="494" type="curve" smooth="yes"/>
      <point x="395" y="406" type="line" smooth="yes"/>
      <point x="395" y="405"/>
      <point x="395" y="405"/>
      <point x="394" y="405" type="curve" smooth="yes"/>
      <point x="306" y="405" type="line" smooth="yes"/>
      <point x="305" y="405"/>
      <point x="305" y="405"/>
      <point x="305" y="406" type="curve" smooth="yes"/>
      <point x="305" y="494" type="line" smooth="yes"/>
      <point x="305" y="495"/>
      <point x="305" y="495"/>
      <point x="306" y="495" type="curve" smooth="yes"/>
    </contour>
  </outline>
</glyph>
<glyph name="quotesingle" format="2">
  <advance width="600"/>
  <unicode hex="0027"/>
  <outline>
    <contour>
      <point x="206" y="695" type="line" smooth="yes"/>
      <point x="294" y="695" type="line" smooth="yes"/>
      <point x="295" y="695"/>
      <point x="295" y="695"/>
      <point x="295" y="694" type="curve" smooth="yes"/>
      <point x="295" y="606" type="line" smooth="yes"/>
      <point x="295" y="605"/>
      <point x="295" y="605"/>
      <point x="294" y="605" type="curve" smooth="yes"/>
      <point x="206" y="605" type="line" smooth="yes"/>
      <point x="205" y="605"/>
      <point x="205" y="605"/>
      <point x="205" y="606" type="curve" smooth="yes"/>
      <point x="205" y="694" type="line" smooth="yes"/>
      <point x="205" y="695"/>
      <point x="205" y="695"/>
      <point x="206" y="695" type="curve" smooth="yes"/>
    </contour>
    <contour>
      <point x="206" y="595" type="line" smooth="yes"/>
      <point x="294" y="595" type="line" smooth="yes"/>
      <point x="295" y="595"/>
      <point x="295" y="595"/>
      <point x="295" y="594" type="curve" smooth="yes"/>
      <point x="295" y="506" type="line" smooth="yes"/>
      <point x="295" y="505"/>
      <point x="295" y="505"/>
      <point x="294" y="505" type="curve" smooth="yes"/>
      <point x="206" y="505" type="line" smooth="yes"/>
      <point x="205" y="505"/>
      <point x="205" y="505"/>
      <point x="205" y="506" type="curve" smooth="yes"/>
      <point x="205" y="594" type="line" smooth="yes"/>
      <point x="205" y="595"/>
      <point x="205" y="595"/>
      <point x="206" y="595" type="curve" smooth="yes"/>
    </contour>
    <contour>
      <point x="206" y="495" type="line" smooth="yes"/>
      <point x="294" y="495" type="line" smooth="yes"/>
      <point x="295" y="495"/>
      <point x="295" y="495"/>
      <point x="295" y="494" type="curve" smooth="yes"/>
      <point x="295" y="406" type="line" smooth="yes"/>
      <point x="295" y="405"/>
      <point x="295" y="405"/>
      <point x="294" y="405" type="curve" smooth="yes"/>
      <point x="206" y="405" type="line" smooth="yes"/>
      <point x="205" y="405"/>
      <point x="205" y="405"/>
      <point x="205" y="406" type="curve" smooth="yes"/>
      <point x="205" y="494" type="line" smooth="yes"/>
      <point x="205" y="495"/>
      <point x="205" y="495"/>
      <point x="206" y="495" type="curve" smooth="yes"/>
    </contour>
  </outline>
</glyph>
<glyph name="underscore" format="2">
  <advance width="600"/>
  <unicode hex="005F"/>
  <outline>
    <contour>
      <point x="6" y="-5" type="line" smooth="yes"/>
      <point x="94" y="-5" type="line" smooth="yes"/>
      <point x="95" y="-5"/>
      <point x="95" y="-5"/>
      <point x="95" y="-6" type="curve" smooth="yes"/>
      <point x="95" y="-94" type="line" smooth="yes"/>
      <point x="95" y="-95"/>
      <point x="95" y="-95"/>
      <point x="94" y="-95" type="curve" smooth="yes"/>
      <point x="6" y="-95" type="line" smooth="yes"/>
      <point x="5" y="-95"/>
      <point x="5" y="-95"/>
      <point x="5" y="-94" type="curve" smooth="yes"/>
      <point x="5" y="-6" type="line" smooth="yes"/>
      <point x="5" y="-5"/>
      <point x="5" y="-5"/>
      <point x="6" y="-5" type="curve" smooth="yes"/>
    </contour>
    <contour>
      <point x="106" y="-5" type="line" smooth="yes"/>
      <point x="194" y="-5" type="line" smooth="yes"/>
      <point x="195" y="-5"/>
      <point x="195" y="-5"/>
      <point x="195" y="-6" type="curve" smooth="yes"/>
      <point x="195" y="-94" type="line" smooth="yes"/>
      <point x="195" y="-95"/>
      <point x="195" y="-95"/>
      <point x="194" y="-95" type="curve" smooth="yes"/>
      <point x="106" y="-95" type="line" smooth="yes"/>
      <point x="105" y="-95"/>
      <point x="105" y="-95"/>
      <point x="105" y="-94" type="curve" smooth="yes"/>
      <point x="105" y="-6" type="line" smooth="yes"/>
      <point x="105" y="-5"/>
      <point x="105" y="-5"/>
      <point x="106" y="-5" type="curve" smooth="yes"/>
    </contour>
    <contour>
      <point x="206" y="-5" type="line" smooth="yes"/>
      <point x="294" y="-5" type="line" smooth="yes"/>
      <point x="295" y="-5"/>
      <point x="295" y="-5"/>
      <point x="295" y="-6" type="curve" smooth="yes"/>
      <point x="295" y="-94" type="line" smooth="yes"/>
      <point x="295" y="-95"/>
      <point x="295" y="-95"/>
      <point x="294" y="-95" type="curve" smooth="yes"/>
      <point x="206" y="-95" type="line" smooth="yes"/>
      <point x="205" y="-95"/>
      <point x="205" y="-95"/>
      <point x="205" y="-94" type="curve" smooth="yes"/>
      <point x="205" y="-6" type="line" smooth="yes"/>
      <point x="205" y="-5"/>
      <point x="205" y="-5"/>
      <point x="206" y="-5" type="curve" smooth="yes"/>
    </contour>
    <contour>
      <point x="306" y="-5" type="line" smooth="yes"/>
      <point x="394" y="-5" type="line" smooth="yes"/>
      <point x="395" y="-5"/>
      <point x="395" y="-5"/>
      <point x="395" y="-6" type="curve" smooth="yes"/>
      <point x="395" y="-94" type="line" smooth="yes"/>
      <point x="395" y="-95"/>
      <point x="395" y="-95"/>
      <point x="394" y="-95" type="curve" smooth="yes"/>
      <point x="306" y="-95" type="line" smooth="yes"/>
      <point x="305" y="-95"/>
      <point x="305" y="-95"/>
      <point x="305" y="-94" type="curve" smooth="yes"/>
      <point x="305" y="-6" type="line" smooth="yes"/>
      <point x="305" y="-5"/>
      <point x="305" y="-5"/>
      <point x="306" y="-5" type="curve" smooth="yes"/>
    </contour>
    <contour>
      <point x="406" y="-5" type="line" smooth="yes"/>
      <point x="494" y="-5" type="line" smooth="yes"/>
      <point x="495" y="-5"/>
      <point x="495" y="-5"/>
      <point x="495" y="-6" type="curve" smooth="yes"/>
      <point x="495" y="-94" type="line" smooth="yes"/>
      <point x="495" y="-95"/>
      <point x="495" y="-95"/>
      <point x="494" y="-95" type="curve" smooth="yes"/>
      <point x="406" y="-95" type="line" smooth="yes"/>
      <point x="405" y="-95"/>
      <point x="405" y="-95"/>
      <point x="405" y="-94" type="curve" smooth="yes"/>
      <point x="405" y="-6" type="line" smooth="yes"/>
      <point x="405" y="-5"/>
      <point x="405" y="-5"/>
      <point x="406" y="-5" type="curve" smooth="yes"/>
    </contour>
  </outline>
</glyph>
<glyph name="x" format="2">
  <advance width="600"/>
  <unicode hex="0078"/>
  <outline>
    <contour>
      <point x="6" y="495" type="line"/>
      <point x="94" y="495" type="line" smooth="yes"/>
      <point x="95" y="495"/>
      <point x="95" y="495"/>
      <point x="95" y="494" type="curve" smooth="yes"/>
      <point x="95" y="406" type="line" smooth="yes"/>
      <point x="95" y="405"/>
      <point x="95" y="405"/>
      <point x="94" y="405" type="curve" smooth="yes"/>
      <point x="6" y="405" type="line" smooth="yes"/>
      <point x="5" y="405"/>
      <point x="5" y="405"/>
      <point x="5" y="406" type="curve" smooth="yes"/>
      <point x="5" y="494" type="line" smooth="yes"/>
      <point x="5" y="495"/>
      <point x="5" y="495"/>
      <point x="6" y="495" type="curve"/>
    </contour>
    <contour>
      <point x="406" y="495" type="line"/>
      <point x="494" y="495" type="line" smooth="yes"/>
      <point x="495" y="495"/>
      <point x="495" y="495"/>
      <point x="495" y="494" type="curve" smooth="yes"/>
      <point x="495" y="406" type="line" smooth="yes"/>
      <point x="495" y="405"/>
      <point x="495" y="405"/>
      <point x="494" y="405" type="curve" smooth="yes"/>
      <point x="406" y="405" type="line" smooth="yes"/>
      <point x="405" y="405"/>
      <point x="405" y="405"/>
      <point x="405" y="406" type="curve" smooth="yes"/>
      <point x="405" y="494" type="line" smooth="yes"/>
      <point x="405" y="495"/>
      <point x="405" y="495"/>
      <point x="406" y="495" type="curve"/>
    </contour>
    <contour>
      <point x="106" y="395" type="line"/>
      <point x="194" y="395" type="line" smooth="yes"/>
      <point x="195" y="395"/>
      <point x="195" y="395"/>
      <point x="195" y="394" type="curve" smooth="yes"/>
      <point x="195" y="306" type="line" smooth="yes"/>
      <point x="195" y="305"/>
      <point x="195" y="305"/>
      <point x="194" y="305" type="curve" smooth="yes"/>
      <point x="106" y="305" type="line" smooth="yes"/>
      <point x="105" y="305"/>
      <point x="105" y="305"/>
      <point x="105" y="306" type="curve" smooth="yes"/>
      <point x="105" y="394" type="line" smooth="yes"/>
      <point x="105" y="395"/>
      <point x="105" y="395"/>
      <point x="106" y="395" type="curve"/>
    </contour>
    <contour>
      <point x="306" y="395" type="line"/>
      <point x="394" y="395" type="line" smooth="yes"/>
      <point x="395" y="395"/>
      <point x="395" y="395"/>
      <point x="395" y="394" type="curve" smooth="yes"/>
      <point x="395" y="306" type="line" smooth="yes"/>
      <point x="395" y="305"/>
      <point x="395" y="305"/>
      <point x="394" y="305" type="curve" smooth="yes"/>
      <point x="306" y="305" type="line" smooth="yes"/>
      <point x="305" y="305"/>
      <point x="305" y="305"/>
      <point x="305" y="306" type="curve" smooth="yes"/>
      <point x="305" y="394" type="line" smooth="yes"/>
      <point x="305" y="395"/>
      <point x="305" y="395"/>
      <point x="306" y="395" type="curve"/>
    </contour>
    <contour>
      <point x="206" y="295" type="line"/>
      <point x="294" y="295" type="line" smooth="yes"/>
      <point x="295" y="295"/>
      <point x="295" y="295"/>
      <point x="295" y="294" type="curve" smooth="yes"/>
      <point x="295" y="206" type="line" smooth="yes"/>
      <point x="295" y="205"/>
      <point x="295" y="205"/>
      <point x="294" y="205" type="curve" smooth="yes"/>
      <point x="206" y="205" type="line" smooth="yes"/>
      <point x="205" y="205"/>
      <point x="205" y="205"/>
      <point x="205" y="206" type="curve" smooth="yes"/>
      <point x="205" y="294" type="line" smooth="yes"/>
      <point x="205" y="295"/>
      <point x="205" y="295"/>
      <point x="206" y="295" type="curve"/>
    </contour>
    <contour>
      <point x="106" y="195" type="line"/>
      <point x="194" y="195" type="line" smooth="yes"/>
      <point x="195" y="195"/>
      <point x="195" y="195"/>
      <point x="195" y="194" type="curve" smooth="yes"/>
      <point x="195" y="106" type="line" smooth="yes"/>
      <point x="195" y="105"/>
      <point x="195" y="105"/>
      <point x="194" y="105" type="curve" smooth="yes"/>
      <point x="106" y="105" type="line" smooth="yes"/>
      <point x="105" y="105"/>
      <point x="105" y="105"/>
      <point x="105" y="106" type="curve" smooth="yes"/>
      <point x="105" y="194" type="line" smooth="yes"/>
      <point x="105" y="195"/>
      <point x="105" y="195"/>
      <point x="106" y="195" type="curve"/>
    </contour>
    <contour>
      <point x="306" y="195" type="line"/>
      <point x="394" y="195" type="line" smooth="yes"/>
      <point x="395" y="195"/>
      <point x="395" y="195"/>
      <point x="395" y="194" type="curve" smooth="yes"/>
      <point x="395" y="106" type="line" smooth="yes"/>
      <point x="395" y="105"/>
      <point x="395" y="105"/>
      <point x="394" y="105" type="curve" smooth="yes"/>
      <point x="306" y="105" type="line" smooth="yes"/>
      <point x="305" y="105"/>
      <point x="305" y="105"/>
      <point x="305" y="106" type="curve" smooth="yes"/>
      <point x="305" y="194" type="line" smooth="yes"/>
      <point x="305" y="195"/>
      <point x="305" y="195"/>
      <point x="306" y="195" type="curve"/>
    </contour>
    <contour>
      <point x="6" y="95" type="line"/>
      <point x="94" y="95" type="line" smooth="yes"/>
      <point x="95" y="95"/>
      <point x="95" y="95"/>
      <point x="95" y="94" type="curve" smooth="yes"/>
      <point x="95" y="6" type="line" smooth="yes"/>
      <point x="95" y="5"/>
      <point x="95" y="5"/>
      <point x="94" y="5" type="curve" smooth="yes"/>
      <point x="6" y="5" type="line" smooth="yes"/>
      <point x="5" y="5"/>
      <point x="5" y="5"/>
      <point x="5" y="6" type="curve" smooth="yes"/>
      <point x="5" y="94" type="line" smooth="yes"/>
      <point x="5" y="95"/>
      <point x="5" y="95"/>
      <point x="6" y="95" type="curve"/>
    </contour>
    <contour>
      <point x="406" y="95" type="line"/>
      <point x="494" y="95" type="line" smooth="yes"/>
      <point x="495" y="95"/>
      <point x="495" y="95"/>
      <point x="495" y="94" type="curve" smooth="yes"/>
      <point x="495" y="6" type="line" smooth="yes"/>
      <point x="495" y="5"/>
      <point x="495" y="5"/>
      <point x="494" y="5" type="curve" smooth="yes"/>
      <point x="406" y="5" type="line" smooth="yes"/>
      <point x="405" y="5"/>
      <point x="405" y="5"/>
      <point x="405" y="6" type="curve" smooth="yes"/>
      <point x="405" y="94" type="line" smooth="yes"/>
      <point x="405" y="95"/>
      <point x="405" y="95"/>
      <point x="406" y="95" type="curve"/>
    </contour>
  </outline>
</glyph>
<glyph name="sterling" format="2">
  <advance width="600"/>
  <unicode hex="00A3"/>
  <outline>
    <contour>
      <point x="206" y="695" type="line" smooth="yes"/>
      <point x="294" y="695" type="line" smooth="yes"/>
      <point x="295" y="695"/>
      <point x="295" y="695"/>
      <point x="295" y="694" type="curve" smooth="yes"/>
      <point x="295" y="606" type="line" smooth="yes"/>
      <point x="295" y="605"/>
      <point x="295" y="605"/>
      <point x="294" y="605" type="curve" smooth="yes"/>
      <point x="206" y="605" type="line" smooth="yes"/>
      <point x="205" y="605"/>
      <point x="205" y="605"/>
      <point x="205" y="606" type="curve" smooth="yes"/>
      <point x="205" y="694" type="line" smooth="yes"/>
      <point x="205" y="695"/>
      <point x="205" y="695"/>
      <point x="206" y="695" type="curve" smooth="yes"/>
    </contour>
    <contour>
      <point x="306" y="695" type="line" smooth="yes"/>
      <point x="394" y="695" type="line" smooth="yes"/>
      <point x="395" y="695"/>
      <point x="395" y="695"/>
      <point x="395" y="694" type="curve" smooth="yes"/>
      <point x="395" y="606" type="line" smooth="yes"/>
      <point x="395" y="605"/>
      <point x="395" y="605"/>
      <point x="394" y="605" type="curve" smooth="yes"/>
      <point x="306" y="605" type="line" smooth="yes"/>
      <point x="305" y="605"/>
      <point x="305" y="605"/>
      <point x="305" y="606" type="curve" smooth="yes"/>
      <point x="305" y="694" type="line" smooth="yes"/>
      <point x="305" y="695"/>
      <point x="305" y="695"/>
      <point x="306" y="695" type="curve" smooth="yes"/>
    </contour>
    <contour>
      <point x="106" y="595" type="line" smooth="yes"/>
      <point x="194" y="595" type="line" smooth="yes"/>
      <point x="195" y="595"/>
      <point x="195" y="595"/>
      <point x="195" y="594" type="curve" smooth="yes"/>
      <point x="195" y="506" type="line" smooth="yes"/>
      <point x="195" y="505"/>
      <point x="195" y="505"/>
      <point x="194" y="505" type="curve" smooth="yes"/>
      <point x="106" y="505" type="line" smooth="yes"/>
      <point x="105" y="505"/>
      <point x="105" y="505"/>
      <point x="105" y="506" type="curve" smooth="yes"/>
      <point x="105" y="594" type="line" smooth="yes"/>
      <point x="105" y="595"/>
      <point x="105" y="595"/>
      <point x="106" y="595" type="curve" smooth="yes"/>
    </contour>
    <contour>
      <point x="406" y="595" type="line" smooth="yes"/>
      <point x="494" y="595" type="line" smooth="yes"/>
      <point x="495" y="595"/>
      <point x="495" y="595"/>
      <point x="495" y="594" type="curve" smooth="yes"/>
      <point x="495" y="506" type="line" smooth="yes"/>
      <point x="495" y="505"/>
      <point x="495" y="505"/>
      <point x="494" y="505" type="curve" smooth="yes"/>
      <point x="406" y="505" type="line" smooth="yes"/>
      <point x="405" y="505"/>
      <point x="405" y="505"/>
      <point x="405" y="506" type="curve" smooth="yes"/>
      <point x="405" y="594" type="line" smooth="yes"/>
      <point x="405" y="595"/>
      <point x="405" y="595"/>
      <point x="406" y="595" type="curve" smooth="yes"/>
    </contour>
    <contour>
      <point x="106" y="495" type="line" smooth="yes"/>
      <point x="194" y="495" type="line" smooth="yes"/>
      <point x="195" y="495"/>
      <point x="195" y="495"/>
      <point x="195" y="494" type="curve" smooth="yes"/>
      <point x="195" y="406" type="line" smooth="yes"/>
      <point x="195" y="405"/>
      <point x="195" y="405"/>
      <point x="194" y="405" type="curve" smooth="yes"/>
      <point x="106" y="405" type="line" smooth="yes"/>
      <point x="105" y="405"/>
      <point x="105" y="405"/>
      <point x="105" y="406" type="curve" smooth="yes"/>
      <point x="105" y="494" type="line" smooth="yes"/>
      <point x="105" y="495"/>
      <point x="105" y="495"/>
      <point x="106" y="495" type="curve" smooth="yes"/>
    </contour>
    <contour>
      <point x="6" y="395" type="line" smooth="yes"/>
      <point x="94" y="395" type="line" smooth="yes"/>
      <point x="95" y="395"/>
      <point x="95" y="395"/>
      <point x="95" y="394" type="curve" smooth="yes"/>
      <point x="95" y="306" type="line" smooth="yes"/>
      <point x="95" y="305"/>
      <point x="95" y="305"/>
      <point x="94" y="305" type="curve" smooth="yes"/>
      <point x="6" y="305" type="line" smooth="yes"/>
      <point x="5" y="305"/>
      <point x="5" y="305"/>
      <point x="5" y="306" type="curve" smooth="yes"/>
      <point x="5" y="394" type="line" smooth="yes"/>
      <point x="5" y="395"/>
      <point x="5" y="395"/>
      <point x="6" y="395" type="curve" smooth="yes"/>
    </contour>
    <contour>
      <point x="106" y="395" type="line" smooth="yes"/>
      <point x="194" y="395" type="line" smooth="yes"/>
      <point x="195" y="395"/>
      <point x="195" y="395"/>
      <point x="195" y="394" type="curve" smooth="yes"/>
      <point x="195" y="306" type="line" smooth="yes"/>
      <point x="195" y="305"/>
      <point x="195" y="305"/>
      <point x="194" y="305" type="curve" smooth="yes"/>
      <point x="106" y="305" type="line" smooth="yes"/>
      <point x="105" y="305"/>
      <point x="105" y="305"/>
      <point x="105" y="306" type="curve" smooth="yes"/>
      <point x="105" y="394" type="line" smooth="yes"/>
      <point x="105" y="395"/>
      <point x="105" y="395"/>
      <point x="106" y="395" type="curve" smooth="yes"/>
    </contour>
    <contour>
      <point x="206" y="395" type="line" smooth="yes"/>
      <point x="294" y="395" type="line" smooth="yes"/>
      <point x="295" y="395"/>
      <point x="295" y="395"/>
      <point x="295" y="394" type="curve" smooth="yes"/>
      <point x="295" y="306" type="line" smooth="yes"/>
      <point x="295" y="305"/>
      <point x="295" y="305"/>
      <point x="294" y="305" type="curve" smooth="yes"/>
      <point x="206" y="305" type="line" smooth="yes"/>
      <point x="205" y="305"/>
      <point x="205" y="305"/>
      <point x="205" y="306" type="curve" smooth="yes"/>
      <point x="205" y="394" type="line" smooth="yes"/>
      <point x="205" y="395"/>
      <point x="205" y="395"/>
      <point x="206" y="395" type="curve" smooth="yes"/>
    </contour>
    <contour>
      <point x="106" y="295" type="line" smooth="yes"/>
      <point x="194" y="295" type="line" smooth="yes"/>
      <point x="195" y="295"/>
      <point x="195" y="295"/>
      <point x="195" y="294" type="curve" smooth="yes"/>
      <point x="195" y="206" type="line" smooth="yes"/>
      <point x="195" y="205"/>
      <point x="195" y="205"/>
      <point x="194" y="205" type="curve" smooth="yes"/>
      <point x="106" y="205" type="line" smooth="yes"/>
      <point x="105" y="205"/>
      <point x="105" y="205"/>
      <point x="105" y="206" type="curve" smooth="yes"/>
      <point x="105" y="294" type="line" smooth="yes"/>
      <point x="105" y="295"/>
      <point x="105" y="295"/>
      <point x="106" y="295" type="curve" smooth="yes"/>
    </contour>
    <contour>
      <point x="106" y="195" type="line" smooth="yes"/>
      <point x="194" y="195" type="line" smooth="yes"/>
      <point x="195" y="195"/>
      <point x="195" y="195"/>
      <point x="195" y="194" type="curve" smooth="yes"/>
      <point x="195" y="106" type="line" smooth="yes"/>
      <point x="195" y="105"/>
      <point x="195" y="105"/>
      <point x="194" y="105" type="curve" smooth="yes"/>
      <point x="106" y="105" type="line" smooth="yes"/>
      <point x="105" y="105"/>
      <point x="105" y="105"/>
      <point x="105" y="106" type="curve" smooth="yes"/>
      <point x="105" y="194" type="line" smooth="yes"/>
      <point x="105" y="195"/>
      <point x="105" y="195"/>
      <point x="106" y="195" type="curve" smooth="yes"/>
    </contour>
    <contour>
      <point x="406" y="195" type="line" smooth="yes"/>
      <point x="494" y="195" type="line" smooth="yes"/>
      <point x="495" y="195"/>
      <point x="495" y="195"/>
      <point x="495" y="194" type="curve" smooth="yes"/>
      <point x="495" y="106" type="line" smooth="yes"/>
      <point x="495" y="105"/>
      <point x="495" y="105"/>
      <point x="494" y="105" type="curve" smooth="yes"/>
      <point x="406" y="105" type="line" smooth="yes"/>
      <point x="405" y="105"/>
      <point x="405" y="105"/>
      <point x="405" y="106" type="curve" smooth="yes"/>
      <point x="405" y="194" type="line" smooth="yes"/>
      <point x="405" y="195"/>
      <point x="405" y="195"/>
      <point x="406" y="195" type="curve" smooth="yes"/>
    </contour>
    <contour>
      <point x="6" y="95" type="line" smooth="yes"/>
      <point x="94" y="95" type="line" smooth="yes"/>
      <point x="95" y="95"/>
      <point x="95" y="95"/>
      <point x="95" y="94" type="curve" smooth="yes"/>
      <point x="95" y="6" type="line" smooth="yes"/>
      <point x="95" y="5"/>
      <point x="95" y="5"/>
      <point x="94" y="5" type="curve" smooth="yes"/>
      <point x="6" y="5" type="line" smooth="yes"/>
      <point x="5" y="5"/>
      <point x="5" y="5"/>
      <point x="5" y="6" type="curve" smooth="yes"/>
      <point x="5" y="94" type="line" smooth="yes"/>
      <point x="5" y="95"/>
      <point x="5" y="95"/>
      <point x="6" y="95" type="curve" smooth="yes"/>
    </contour>
    <contour>
      <point x="206" y="95" type="line" smooth="yes"/>
      <point x="294" y="95" type="line" smooth="yes"/>
      <point x="295" y="95"/>
      <point x="295" y="95"/>
      <point x="295" y="94" type="curve" smooth="yes"/>
      <point x="295" y="6" type="line" smooth="yes"/>
      <point x="295" y="5"/>
      <point x="295" y="5"/>
      <point x="294" y="5" type="curve" smooth="yes"/>
      <point x="206" y="5" type="line" smooth="yes"/>
      <point x="205" y="5"/>
      <point x="205" y="5"/>
      <point x="205" y="6" type="curve" smooth="yes"/>
      <point x="205" y="94" type="line" smooth="yes"/>
      <point x="205" y="95"/>
      <point x="205" y="95"/>
      <point x="206" y="95" type="curve" smooth="yes"/>
    </contour>
    <contour>
      <point x="306" y="95" type="line" smooth="yes"/>
      <point x="394" y="95" type="line" smooth="yes"/>
      <point x="395" y="95"/>
      <point x="395" y="95"/>
      <point x="395" y="94" type="curve" smooth="yes"/>
      <point x="395" y="6" type="line" smooth="yes"/>
      <point x="395" y="5"/>
      <point x="395" y="5"/>
      <point x="394" y="5" type="curve" smooth="yes"/>
      <point x="306" y="5" type="line" smooth="yes"/>
      <point x="305" y="5"/>
      <point x="305" y="5"/>
      <point x="305" y="6" type="curve" smooth="yes"/>
      <point x="305" y="94" type="line" smooth="yes"/>
      <point x="305" y="95"/>
      <point x="305" y="95"/>
      <point x="306" y="95" type="curve" smooth="yes"/>
    </contour>
  </outline>
</glyph>
<glyph name="ordfeminine" format="2">
  <advance width="600"/>
  <unicode hex="00AA"/>
  <outline>
    <contour>
      <point x="206" y="695" type="line" smooth="yes"/>
      <point x="294" y="695" type="line" smooth="yes"/>
      <point x="295" y="695"/>
      <point x="295" y="695"/>
      <point x="295" y="694" type="curve" smooth="yes"/>
      <point x="295" y="606" type="line" smooth="yes"/>
      <point x="295" y="605"/>
      <point x="295" y="605"/>
      <point x="294" y="605" type="curve" smooth="yes"/>
      <point x="206" y="605" type="line" smooth="yes"/>
      <point x="205" y="605"/>
      <point x="205" y="605"/>
      <point x="205" y="606" type="curve" smooth="yes"/>
      <point x="205" y="694" type="line" smooth="yes"/>
      <point x="205" y="695"/>
      <point x="205" y="695"/>
      <point x="206" y="695" type="curve" smooth="yes"/>
    </contour>
    <contour>
      <point x="306" y="695" type="line" smooth="yes"/>
      <point x="394" y="695" type="line" smooth="yes"/>
      <point x="395" y="695"/>
      <point x="395" y="695"/>
      <point x="395" y="694" type="curve" smooth="yes"/>
      <point x="395" y="606" type="line" smooth="yes"/>
      <point x="395" y="605"/>
      <point x="395" y="605"/>
      <point x="394" y="605" type="curve" smooth="yes"/>
      <point x="306" y="605" type="line" smooth="yes"/>
      <point x="305" y="605"/>
      <point x="305" y="605"/>
      <point x="305" y="606" type="curve" smooth="yes"/>
      <point x="305" y="694" type="line" smooth="yes"/>
      <point x="305" y="695"/>
      <point x="305" y="695"/>
      <point x="306" y="695" type="curve" smooth="yes"/>
    </contour>
    <contour>
      <point x="406" y="695" type="line" smooth="yes"/>
      <point x="494" y="695" type="line" smooth="yes"/>
      <point x="495" y="695"/>
      <point x="495" y="695"/>
      <point x="495" y="694" type="curve" smooth="yes"/>
      <point x="495" y="606" type="line" smooth="yes"/>
      <point x="495" y="605"/>
      <point x="495" y="605"/>
      <point x="494" y="605" type="curve" smooth="yes"/>
      <point x="406" y="605" type="line" smooth="yes"/>
      <point x="405" y="605"/>
      <point x="405" y="605"/>
      <point x="405" y="606" type="curve" smooth="yes"/>
      <point x="405" y="694" type="line" smooth="yes"/>
      <point x="405" y="695"/>
      <point x="405" y="695"/>
      <point x="406" y="695" type="curve" smooth="yes"/>
    </contour>
    <contour>
      <point x="106" y="595" type="line" smooth="yes"/>
      <point x="194" y="595" type="line" smooth="yes"/>
      <point x="195" y="595"/>
      <point x="195" y="595"/>
      <point x="195" y="594" type="curve" smooth="yes"/>
      <point x="195" y="506" type="line" smooth="yes"/>
      <point x="195" y="505"/>
      <point x="195" y="505"/>
      <point x="194" y="505" type="curve" smooth="yes"/>
      <point x="106" y="505" type="line" smooth="yes"/>
      <point x="105" y="505"/>
      <point x="105" y="505"/>
      <point x="105" y="506" type="curve" smooth="yes"/>
      <point x="105" y="594" type="line" smooth="yes"/>
      <point x="105" y="595"/>
      <point x="105" y="595"/>
      <point x="106" y="595" type="curve" smooth="yes"/>
    </contour>
    <contour>
      <point x="406" y="595" type="line" smooth="yes"/>
      <point x="494" y="595" type="line" smooth="yes"/>
      <point x="495" y="595"/>
      <point x="495" y="595"/>
      <point x="495" y="594" type="curve" smooth="yes"/>
      <point x="495" y="506" type="line" smooth="yes"/>
      <point x="495" y="505"/>
      <point x="495" y="505"/>
      <point x="494" y="505" type="curve" smooth="yes"/>
      <point x="406" y="505" type="line" smooth="yes"/>
      <point x="405" y="505"/>
      <point x="405" y="505"/>
      <point x="405" y="506" type="curve" smooth="yes"/>
      <point x="405" y="594" type="line" smooth="yes"/>
      <point x="405" y="595"/>
      <point x="405" y="595"/>
      <point x="406" y="595" type="curve" smooth="yes"/>
    </contour>
    <contour>
      <point x="106" y="495" type="line" smooth="yes"/>
      <point x="194" y="495" type="line" smooth="yes"/>
      <point x="195" y="495"/>
      <point x="195" y="495"/>
      <point x="195" y="494" type="curve" smooth="yes"/>
      <point x="195" y="406" type="line" smooth="yes"/>
      <point x="195" y="405"/>
      <point x="195" y="405"/>
      <point x="194" y="405" type="curve" smooth="yes"/>
      <point x="106" y="405" type="line" smooth="yes"/>
      <point x="105" y="405"/>
      <point x="105" y="405"/>
      <point x="105" y="406" type="curve" smooth="yes"/>
      <point x="105" y="494" type="line" smooth="yes"/>
      <point x="105" y="495"/>
      <point x="105" y="495"/>
      <point x="106" y="495" type="curve" smooth="yes"/>
    </contour>
    <contour>
      <point x="306" y="495" type="line" smooth="yes"/>
      <point x="394" y="495" type="line" smooth="yes"/>
      <point x="395" y="495"/>
      <point x="395" y="495"/>
      <point x="395" y="494" type="curve" smooth="yes"/>
      <point x="395" y="406" type="line" smooth="yes"/>
      <point x="395" y="405"/>
      <point x="395" y="405"/>
      <point x="394" y="405" type="curve" smooth="yes"/>
      <point x="306" y="405" type="line" smooth="yes"/>
      <point x="305" y="405"/>
      <point x="305" y="405"/>
      <point x="305" y="406" type="curve" smooth="yes"/>
      <point x="305" y="494" type="line" smooth="yes"/>
      <point x="305" y="495"/>
      <point x="305" y="495"/>
      <point x="306" y="495" type="curve" smooth="yes"/>
    </contour>
    <contour>
      <point x="406" y="495" type="line" smooth="yes"/>
      <point x="494" y="495" type="line" smooth="yes"/>
      <point x="495" y="495"/>
      <point x="495" y="495"/>
      <point x="495" y="494" type="curve" smooth="yes"/>
      <point x="495" y="406" type="line" smooth="yes"/>
      <point x="495" y="405"/>
      <point x="495" y="405"/>
      <point x="494" y="405" type="curve" smooth="yes"/>
      <point x="406" y="405" type="line" smooth="yes"/>
      <point x="405" y="405"/>
      <point x="405" y="405"/>
      <point x="405" y="406" type="curve" smooth="yes"/>
      <point x="405" y="494" type="line" smooth="yes"/>
      <point x="405" y="495"/>
      <point x="405" y="495"/>
      <point x="406" y="495" type="curve" smooth="yes"/>
    </contour>
    <contour>
      <point x="206" y="395" type="line" smooth="yes"/>
      <point x="294" y="395" type="line" smooth="yes"/>
      <point x="295" y="395"/>
      <point x="295" y="395"/>
      <point x="295" y="394" type="curve" smooth="yes"/>
      <point x="295" y="306" type="line" smooth="yes"/>
      <point x="295" y="305"/>
      <point x="295" y="305"/>
      <point x="294" y="305" type="curve" smooth="yes"/>
      <point x="206" y="305" type="line" smooth="yes"/>
      <point x="205" y="305"/>
      <point x="205" y="305"/>
      <point x="205" y="306" type="curve" smooth="yes"/>
      <point x="205" y="394" type="line" smooth="yes"/>
      <point x="205" y="395"/>
      <point x="205" y="395"/>
      <point x="206" y="395" type="curve" smooth="yes"/>
    </contour>
    <contour>
      <point x="406" y="395" type="line" smooth="yes"/>
      <point x="494" y="395" type="line" smooth="yes"/>
      <point x="495" y="395"/>
      <point x="495" y="395"/>
      <point x="495" y="394" type="curve" smooth="yes"/>
      <point x="495" y="306" type="line" smooth="yes"/>
      <point x="495" y="305"/>
      <point x="495" y="305"/>
      <point x="494" y="305" type="curve" smooth="yes"/>
      <point x="406" y="305" type="line" smooth="yes"/>
      <point x="405" y="305"/>
      <point x="405" y="305"/>
      <point x="405" y="306" type="curve" smooth="yes"/>
      <point x="405" y="394" type="line" smooth="yes"/>
      <point x="405" y="395"/>
      <point x="405" y="395"/>
      <point x="406" y="395" type="curve" smooth="yes"/>
    </contour>
    <contour>
      <point x="106" y="195" type="line" smooth="yes"/>
      <point x="194" y="195" type="line" smooth="yes"/>
      <point x="195" y="195"/>
      <point x="195" y="195"/>
      <point x="195" y="194" type="curve" smooth="yes"/>
      <point x="195" y="106" type="line" smooth="yes"/>
      <point x="195" y="105"/>
      <point x="195" y="105"/>
      <point x="194" y="105" type="curve" smooth="yes"/>
      <point x="106" y="105" type="line" smooth="yes"/>
      <point x="105" y="105"/>
      <point x="105" y="105"/>
      <point x="105" y="106" type="curve" smooth="yes"/>
      <point x="105" y="194" type="line" smooth="yes"/>
      <point x="105" y="195"/>
      <point x="105" y="195"/>
      <point x="106" y="195" type="curve" smooth="yes"/>
    </contour>
    <contour>
      <point x="206" y="195" type="line" smooth="yes"/>
      <point x="294" y="195" type="line" smooth="yes"/>
      <point x="295" y="195"/>
      <point x="295" y="195"/>
      <point x="295" y="194" type="curve" smooth="yes"/>
      <point x="295" y="106" type="line" smooth="yes"/>
      <point x="295" y="105"/>
      <point x="295" y="105"/>
      <point x="294" y="105" type="curve" smooth="yes"/>
      <point x="206" y="105" type="line" smooth="yes"/>
      <point x="205" y="105"/>
      <point x="205" y="105"/>
      <point x="205" y="106" type="curve" smooth="yes"/>
      <point x="205" y="194" type="line" smooth="yes"/>
      <point x="205" y="195"/>
      <point x="205" y="195"/>
      <point x="206" y="195" type="curve" smooth="yes"/>
    </contour>
    <contour>
      <point x="306" y="195" type="line" smooth="yes"/>
      <point x="394" y="195" type="line" smooth="yes"/>
      <point x="395" y="195"/>
      <point x="395" y="195"/>
      <point x="395" y="194" type="curve" smooth="yes"/>
      <point x="395" y="106" type="line" smooth="yes"/>
      <point x="395" y="105"/>
      <point x="395" y="105"/>
      <point x="394" y="105" type="curve" smooth="yes"/>
      <point x="306" y="105" type="line" smooth="yes"/>
      <point x="305" y="105"/>
      <point x="305" y="105"/>
      <point x="305" y="106" type="curve" smooth="yes"/>
      <point x="305" y="194" type="line" smooth="yes"/>
      <point x="305" y="195"/>
      <point x="305" y="195"/>
      <point x="306" y="195" type="curve" smooth="yes"/>
    </contour>
    <contour>
      <point x="406" y="195" type="line" smooth="yes"/>
      <point x="494" y="195" type="line" smooth="yes"/>
      <point x="495" y="195"/>
      <point x="495" y="195"/>
      <point x="495" y="194" type="curve" smooth="yes"/>
      <point x="495" y="106" type="line" smooth="yes"/>
      <point x="495" y="105"/>
      <point x="495" y="105"/>
      <point x="494" y="105" type="curve" smooth="yes"/>
      <point x="406" y="105" type="line" smooth="yes"/>
      <point x="405" y="105"/>
      <point x="405" y="105"/>
      <point x="405" y="106" type="curve" smooth="yes"/>
      <point x="405" y="194" type="line" smooth="yes"/>
      <point x="405" y="195"/>
      <point x="405" y="195"/>
      <point x="406" y="195" type="curve" smooth="yes"/>
    </contour>
  </outline>
</glyph>
<glyph name="macron" format="2">
  <advance width="600"/>
  <unicode hex="00AF"/>
  <outline>
    <contour>
      <point x="6" y="795" type="line" smooth="yes"/>
      <point x="94" y="795" type="line" smooth="yes"/>
      <point x="95" y="795"/>
      <point x="95" y="795"/>
      <point x="95" y="794" type="curve" smooth="yes"/>
      <point x="95" y="706" type="line" smooth="yes"/>
      <point x="95" y="705"/>
      <point x="95" y="705"/>
      <point x="94" y="705" type="curve" smooth="yes"/>
      <point x="6" y="705" type="line" smooth="yes"/>
      <point x="5" y="705"/>
      <point x="5" y="705"/>
      <point x="5" y="706" type="curve" smooth="yes"/>
      <point x="5" y="794" type="line" smooth="yes"/>
      <point x="5" y="795"/>
      <point x="5" y="795"/>
      <point x="6" y="795" type="curve" smooth="yes"/>
    </contour>
    <contour>
      <point x="106" y="795" type="line" smooth="yes"/>
      <point x="194" y="795" type="line" smooth="yes"/>
      <point x="195" y="795"/>
      <point x="195" y="795"/>
      <point x="195" y="794" type="curve" smooth="yes"/>
      <point x="195" y="706" type="line" smooth="yes"/>
      <point x="195" y="705"/>
      <point x="195" y="705"/>
      <point x="194" y="705" type="curve" smooth="yes"/>
      <point x="106" y="705" type="line" smooth="yes"/>
      <point x="105" y="705"/>
      <point x="105" y="705"/>
      <point x="105" y="706" type="curve" smooth="yes"/>
      <point x="105" y="794" type="line" smooth="yes"/>
      <point x="105" y="795"/>
      <point x="105" y="795"/>
      <point x="106" y="795" type="curve" smooth="yes"/>
    </contour>
    <contour>
      <point x="206" y="795" type="line" smooth="yes"/>
      <point x="294" y="795" type="line" smooth="yes"/>
      <point x="295" y="795"/>
      <point x="295" y="795"/>
      <point x="295" y="794" type="curve" smooth="yes"/>
      <point x="295" y="706" type="line" smooth="yes"/>
      <point x="295" y="705"/>
      <point x="295" y="705"/>
      <point x="294" y="705" type="curve" smooth="yes"/>
      <point x="206" y="705" type="line" smooth="yes"/>
      <point x="205" y="705"/>
      <point x="205" y="705"/>
      <point x="205" y="706" type="curve" smooth="yes"/>
      <point x="205" y="794" type="line" smooth="yes"/>
      <point x="205" y="795"/>
      <point x="205" y="795"/>
      <point x="206" y="795" type="curve" smooth="yes"/>
    </contour>
    <contour>
      <point x="306" y="795" type="line" smooth="yes"/>
      <point x="394" y="795" type="line" smooth="yes"/>
      <point x="395" y="795"/>
      <point x="395" y="795"/>
      <point x="395" y="794" type="curve" smooth="yes"/>
      <point x="395" y="706" type="line" smooth="yes"/>
      <point x="395" y="705"/>
      <point x="395" y="705"/>
      <point x="394" y="705" type="curve" smooth="yes"/>
      <point x="306" y="705" type="line" smooth="yes"/>
      <point x="305" y="705"/>
      <point x="305" y="705"/>
      <point x="305" y="706" type="curve" smooth="yes"/>
      <point x="305" y="794" type="line" smooth="yes"/>
      <point x="305" y="795"/>
      <point x="305" y="795"/>
      <point x="306" y="795" type="curve" smooth="yes"/>
    </contour>
    <contour>
      <point x="406" y="795" type="line" smooth="yes"/>
      <point x="494" y="795" type="line" smooth="yes"/>
      <point x="495" y="795"/>
      <point x="495" y="795"/>
      <point x="495" y="794" type="curve" smooth="yes"/>
      <point x="495" y="706" type="line" smooth="yes"/>
      <point x="495" y="705"/>
      <point x="495" y="705"/>
      <point x="494" y="705" type="curve" smooth="yes"/>
      <point x="406" y="705" type="line" smooth="yes"/>
      <point x="405" y="705"/>
      <point x="405" y="705"/>
      <point x="405" y="706" type="curve" smooth="yes"/>
      <point x="405" y="794" type="line" smooth="yes"/>
      <point x="405" y="795"/>
      <point x="405" y="795"/>
      <point x="406" y="795" type="curve" smooth="yes"/>
    </contour>
  </outline>
</glyph>
<glyph name="periodcentered" format="2">
  <advance width="600"/>
  <unicode hex="00B7"/>
  <outline>
    <contour>
      <point x="206" y="395" type="line" smooth="yes"/>
      <point x="294" y="395" type="line" smooth="yes"/>
      <point x="295" y="395"/>
      <point x="295" y="395"/>
      <point x="295" y="394" type="curve" smooth="yes"/>
      <point x="295" y="306" type="line" smooth="yes"/>
      <point x="295" y="305"/>
      <point x="295" y="305"/>
      <point x="294" y="305" type="curve" smooth="yes"/>
      <point x="206" y="305" type="line" smooth="yes"/>
      <point x="205" y="305"/>
      <point x="205" y="305"/>
      <point x="205" y="306" type="curve" smooth="yes"/>
      <point x="205" y="394" type="line" smooth="yes"/>
      <point x="205" y="395"/>
      <point x="205" y="395"/>
      <point x="206" y="395" type="curve" smooth="yes"/>
    </contour>
  </outline>
</glyph>
<glyph name="cedilla" format="2">
  <advance width="600"/>
  <unicode hex="00B8"/>
  <outline>
    <contour>
      <point x="306" y="-5" type="line" smooth="yes"/>
      <point x="394" y="-5" type="line" smooth="yes"/>
      <point x="395" y="-5"/>
      <point x="395" y="-5"/>
      <point x="395" y="-6" type="curve" smooth="yes"/>
      <point x="395" y="-94" type="line" smooth="yes"/>
      <point x="395" y="-95"/>
      <point x="395" y="-95"/>
      <point x="394" y="-95" type="curve" smooth="yes"/>
      <point x="306" y="-95" type="line" smooth="yes"/>
      <point x="305" y="-95"/>
      <point x="305" y="-95"/>
      <point x="305" y="-94" type="curve" smooth="yes"/>
      <point x="305" y="-6" type="line" smooth="yes"/>
      <point x="305" y="-5"/>
      <point x="305" y="-5"/>
      <point x="306" y="-5" type="curve" smooth="yes"/>
    </contour>
    <contour>
      <point x="206" y="-105" type="line" smooth="yes"/>
      <point x="294" y="-105" type="line" smooth="yes"/>
      <point x="295" y="-105"/>
      <point x="295" y="-105"/>
      <point x="295" y="-106" type="curve" smooth="yes"/>
      <point x="295" y="-194" type="line" smooth="yes"/>
      <point x="295" y="-195"/>
      <point x="295" y="-195"/>
      <point x="294" y="-195" type="curve" smooth="yes"/>
      <point x="206" y="-195" type="line" smooth="yes"/>
      <point x="205" y="-195"/>
      <point x="205" y="-195"/>
      <point x="205" y="-194" type="curve" smooth="yes"/>
      <point x="205" y="-106" type="line" smooth="yes"/>
      <point x="205" y="-105"/>
      <point x="205" y="-105"/>
      <point x="206" y="-105" type="curve" smooth="yes"/>
    </contour>
  </outline>
</glyph>
<glyph name="guillemotright" format="2">
  <advance width="600"/>
  <unicode hex="00BB"/>
  <outline>
    <contour>
      <point x="6" y="495" type="line" smooth="yes"/>
      <point x="94" y="495" type="line" smooth="yes"/>
      <point x="95" y="495"/>
      <point x="95" y="495"/>
      <point x="95" y="494" type="curve" smooth="yes"/>
      <point x="95" y="406" type="line" smooth="yes"/>
      <point x="95" y="405"/>
      <point x="95" y="405"/>
      <point x="94" y="405" type="curve" smooth="yes"/>
      <point x="6" y="405" type="line" smooth="yes"/>
      <point x="5" y="405"/>
      <point x="5" y="405"/>
      <point x="5" y="406" type="curve" smooth="yes"/>
      <point x="5" y="494" type="line" smooth="yes"/>
      <point x="5" y="495"/>
      <point x="5" y="495"/>
      <point x="6" y="495" type="curve" smooth="yes"/>
    </contour>
    <contour>
      <point x="306" y="495" type="line" smooth="yes"/>
      <point x="394" y="495" type="line" smooth="yes"/>
      <point x="395" y="495"/>
      <point x="395" y="495"/>
      <point x="395" y="494" type="curve" smooth="yes"/>
      <point x="395" y="406" type="line" smooth="yes"/>
      <point x="395" y="405"/>
      <point x="395" y="405"/>
      <point x="394" y="405" type="curve" smooth="yes"/>
      <point x="306" y="405" type="line" smooth="yes"/>
      <point x="305" y="405"/>
      <point x="305" y="405"/>
      <point x="305" y="406" type="curve" smooth="yes"/>
      <point x="305" y="494" type="line" smooth="yes"/>
      <point x="305" y="495"/>
      <point x="305" y="495"/>
      <point x="306" y="495" type="curve" smooth="yes"/>
    </contour>
    <contour>
      <point x="106" y="395" type="line" smooth="yes"/>
      <point x="194" y="395" type="line" smooth="yes"/>
      <point x="195" y="395"/>
      <point x="195" y="395"/>
      <point x="195" y="394" type="curve" smooth="yes"/>
      <point x="195" y="306" type="line" smooth="yes"/>
      <point x="195" y="305"/>
      <point x="195" y="305"/>
      <point x="194" y="305" type="curve" smooth="yes"/>
      <point x="106" y="305" type="line" smooth="yes"/>
      <point x="105" y="305"/>
      <point x="105" y="305"/>
      <point x="105" y="306" type="curve" smooth="yes"/>
      <point x="105" y="394" type="line" smooth="yes"/>
      <point x="105" y="395"/>
      <point x="105" y="395"/>
      <point x="106" y="395" type="curve" smooth="yes"/>
    </contour>
    <contour>
      <point x="406" y="395" type="line" smooth="yes"/>
      <point x="494" y="395" type="line" smooth="yes"/>
      <point x="495" y="395"/>
      <point x="495" y="395"/>
      <point x="495" y="394" type="curve" smooth="yes"/>
      <point x="495" y="306" type="line" smooth="yes"/>
      <point x="495" y="305"/>
      <point x="495" y="305"/>
      <point x="494" y="305" type="curve" smooth="yes"/>
      <point x="406" y="305" type="line" smooth="yes"/>
      <point x="405" y="305"/>
      <point x="405" y="305"/>
      <point x="405" y="306" type="curve" smooth="yes"/>
      <point x="405" y="394" type="line" smooth="yes"/>
      <point x="405" y="395"/>
      <point x="405" y="395"/>
      <point x="406" y="395" type="curve" smooth="yes"/>
    </contour>
    <contour>
      <point x="206" y="295" type="line" smooth="yes"/>
      <point x="294" y="295" type="line" smooth="yes"/>
      <point x="295" y="295"/>
      <point x="295" y="295"/>
      <point x="295" y="294" type="curve" smooth="yes"/>
      <point x="295" y="206" type="line" smooth="yes"/>
      <point x="295" y="205"/>
      <point x="295" y="205"/>
      <point x="294" y="205" type="curve" smooth="yes"/>
      <point x="206" y="205" type="line" smooth="yes"/>
      <point x="205" y="205"/>
      <point x="205" y="205"/>
      <point x="205" y="206" type="curve" smooth="yes"/>
      <point x="205" y="294" type="line" smooth="yes"/>
      <point x="205" y="295"/>
      <point x="205" y="295"/>
      <point x="206" y="295" type="curve" smooth="yes"/>
    </contour>
    <contour>
      <point x="506" y="295" type="line" smooth="yes"/>
      <point x="594" y="295" type="line" smooth="yes"/>
      <point x="595" y="295"/>
      <point x="595" y="295"/>
      <point x="595" y="294" type="curve" smooth="yes"/>
      <point x="595" y="206" type="line" smooth="yes"/>
      <point x="595" y="205"/>
      <point x="595" y="205"/>
      <point x="594" y="205" type="curve" smooth="yes"/>
      <point x="506" y="205" type="line" smooth="yes"/>
      <point x="505" y="205"/>
      <point x="505" y="205"/>
      <point x="505" y="206" type="curve" smooth="yes"/>
      <point x="505" y="294" type="line" smooth="yes"/>
      <point x="505" y="295"/>
      <point x="505" y="295"/>
      <point x="506" y="295" type="curve" smooth="yes"/>
    </contour>
    <contour>
      <point x="106" y="195" type="line" smooth="yes"/>
      <point x="194" y="195" type="line" smooth="yes"/>
      <point x="195" y="195"/>
      <point x="195" y="195"/>
      <point x="195" y="194" type="curve" smooth="yes"/>
      <point x="195" y="106" type="line" smooth="yes"/>
      <point x="195" y="105"/>
      <point x="195" y="105"/>
      <point x="194" y="105" type="curve" smooth="yes"/>
      <point x="106" y="105" type="line" smooth="yes"/>
      <point x="105" y="105"/>
      <point x="105" y="105"/>
      <point x="105" y="106" type="curve" smooth="yes"/>
      <point x="105" y="194" type="line" smooth="yes"/>
      <point x="105" y="195"/>
      <point x="105" y="195"/>
      <point x="106" y="195" type="curve" smooth="yes"/>
    </contour>
    <contour>
      <point x="406" y="195" type="line" smooth="yes"/>
      <point x="494" y="195" type="line" smooth="yes"/>
      <point x="495" y="195"/>
      <point x="495" y="195"/>
      <point x="495" y="194" type="curve" smooth="yes"/>
      <point x="495" y="106" type="line" smooth="yes"/>
      <point x="495" y="105"/>
      <point x="495" y="105"/>
      <point x="494" y="105" type="curve" smooth="yes"/>
      <point x="406" y="105" type="line" smooth="yes"/>
      <point x="405" y="105"/>
      <point x="405" y="105"/>
      <point x="405" y="106" type="curve" smooth="yes"/>
      <point x="405" y="194" type="line" smooth="yes"/>
      <point x="405" y="195"/>
      <point x="405" y="195"/>
      <point x="406" y="195" type="curve" smooth="yes"/>
    </contour>
    <contour>
      <point x="6" y="95" type="line" smooth="yes"/>
      <point x="94" y="95" type="line" smooth="yes"/>
      <point x="95" y="95"/>
      <point x="95" y="95"/>
      <point x="95" y="94" type="curve" smooth="yes"/>
      <point x="95" y="6" type="line" smooth="yes"/>
      <point x="95" y="5"/>
      <point x="95" y="5"/>
      <point x="94" y="5" type="curve" smooth="yes"/>
      <point x="6" y="5" type="line" smooth="yes"/>
      <point x="5" y="5"/>
      <point x="5" y="5"/>
      <point x="5" y="6" type="curve" smooth="yes"/>
      <point x="5" y="94" type="line" smooth="yes"/>
      <point x="5" y="95"/>
      <point x="5" y="95"/>
      <point x="6" y="95" type="curve" smooth="yes"/>
    </contour>
    <contour>
      <point x="306" y="95" type="line" smooth="yes"/>
      <point x="394" y="95" type="line" smooth="yes"/>
      <point x="395" y="95"/>
      <point x="395" y="95"/>
      <point x="395" y="94" type="curve" smooth="yes"/>
      <point x="395" y="6" type="line" smooth="yes"/>
      <point x="395" y="5"/>
      <point x="395" y="5"/>
      <point x="394" y="5" type="curve" smooth="yes"/>
      <point x="306" y="5" type="line" smooth="yes"/>
      <point x="305" y="5"/>
      <point x="305" y="5"/>
      <point x="305" y="6" type="curve" smooth="yes"/>
      <point x="305" y="94" type="line" smooth="yes"/>
      <point x="305" y="95"/>
      <point x="305" y="95"/>
      <point x="306" y="95" type="curve" smooth="yes"/>
    </contour>
  </outline>
</glyph>
<glyph name="Thorn" format="2">
  <advance width="600"/>
  <unicode hex="00DE"/>
  <outline>
    <contour>
      <point x="6" y="695" type="line" smooth="yes"/>
      <point x="94" y="695" type="line" smooth="yes"/>
      <point x="95" y="695"/>
      <point x="95" y="695"/>
      <point x="95" y="694" type="curve" smooth="yes"/>
      <point x="95" y="606" type="line" smooth="yes"/>
      <point x="95" y="605"/>
      <point x="95" y="605"/>
      <point x="94" y="605" type="curve" smooth="yes"/>
      <point x="6" y="605" type="line" smooth="yes"/>
      <point x="5" y="605"/>
      <point x="5" y="605"/>
      <point x="5" y="606" type="curve" smooth="yes"/>
      <point x="5" y="694" type="line" smooth="yes"/>
      <point x="5" y="695"/>
      <point x="5" y="695"/>
      <point x="6" y="695" type="curve" smooth="yes"/>
    </contour>
    <contour>
      <point x="6" y="595" type="line" smooth="yes"/>
      <point x="94" y="595" type="line" smooth="yes"/>
      <point x="95" y="595"/>
      <point x="95" y="595"/>
      <point x="95" y="594" type="curve" smooth="yes"/>
      <point x="95" y="506" type="line" smooth="yes"/>
      <point x="95" y="505"/>
      <point x="95" y="505"/>
      <point x="94" y="505" type="curve" smooth="yes"/>
      <point x="6" y="505" type="line" smooth="yes"/>
      <point x="5" y="505"/>
      <point x="5" y="505"/>
      <point x="5" y="506" type="curve" smooth="yes"/>
      <point x="5" y="594" type="line" smooth="yes"/>
      <point x="5" y="595"/>
      <point x="5" y="595"/>
      <point x="6" y="595" type="curve" smooth="yes"/>
    </contour>
    <contour>
      <point x="106" y="595" type="line" smooth="yes"/>
      <point x="194" y="595" type="line" smooth="yes"/>
      <point x="195" y="595"/>
      <point x="195" y="595"/>
      <point x="195" y="594" type="curve" smooth="yes"/>
      <point x="195" y="506" type="line" smooth="yes"/>
      <point x="195" y="505"/>
      <point x="195" y="505"/>
      <point x="194" y="505" type="curve" smooth="yes"/>
      <point x="106" y="505" type="line" smooth="yes"/>
      <point x="105" y="505"/>
      <point x="105" y="505"/>
      <point x="105" y="506" type="curve" smooth="yes"/>
      <point x="105" y="594" type="line" smooth="yes"/>
      <point x="105" y="595"/>
      <point x="105" y="595"/>
      <point x="106" y="595" type="curve" smooth="yes"/>
    </contour>
    <contour>
      <point x="206" y="595" type="line" smooth="yes"/>
      <point x="294" y="595" type="line" smooth="yes"/>
      <point x="295" y="595"/>
      <point x="295" y="595"/>
      <point x="295" y="594" type="curve" smooth="yes"/>
      <point x="295" y="506" type="line" smooth="yes"/>
      <point x="295" y="505"/>
      <point x="295" y="505"/>
      <point x="294" y="505" type="curve" smooth="yes"/>
      <point x="206" y="505" type="line" smooth="yes"/>
      <point x="205" y="505"/>
      <point x="205" y="505"/>
      <point x="205" y="506" type="curve" smooth="yes"/>
      <point x="205" y="594" type="line" smooth="yes"/>
      <point x="205" y="595"/>
      <point x="205" y="595"/>
      <point x="206" y="595" type="curve" smooth="yes"/>
    </contour>
    <contour>
      <point x="306" y="595" type="line" smooth="yes"/>
      <point x="394" y="595" type="line" smooth="yes"/>
      <point x="395" y="595"/>
      <point x="395" y="595"/>
      <point x="395" y="594" type="curve" smooth="yes"/>
      <point x="395" y="506" type="line" smooth="yes"/>
      <point x="395" y="505"/>
      <point x="395" y="505"/>
      <point x="394" y="505" type="curve" smooth="yes"/>
      <point x="306" y="505" type="line" smooth="yes"/>
      <point x="305" y="505"/>
      <point x="305" y="505"/>
      <point x="305" y="506" type="curve" smooth="yes"/>
      <point x="305" y="594" type="line" smooth="yes"/>
      <point x="305" y="595"/>
      <point x="305" y="595"/>
      <point x="306" y="595" type="curve" smooth="yes"/>
    </contour>
    <contour>
      <point x="6" y="495" type="line" smooth="yes"/>
      <point x="94" y="495" type="line" smooth="yes"/>
      <point x="95" y="495"/>
      <point x="95" y="495"/>
      <point x="95" y="494" type="curve" smooth="yes"/>
      <point x="95" y="406" type="line" smooth="yes"/>
      <point x="95" y="405"/>
      <point x="95" y="405"/>
      <point x="94" y="405" type="curve" smooth="yes"/>
      <point x="6" y="405" type="line" smooth="yes"/>
      <point x="5" y="405"/>
      <point x="5" y="405"/>
      <point x="5" y="406" type="curve" smooth="yes"/>
      <point x="5" y="494" type="line" smooth="yes"/>
      <point x="5" y="495"/>
      <point x="5" y="495"/>
      <point x="6" y="495" type="curve" smooth="yes"/>
    </contour>
    <contour>
      <point x="406" y="495" type="line" smooth="yes"/>
      <point x="494" y="495" type="line" smooth="yes"/>
      <point x="495" y="495"/>
      <point x="495" y="495"/>
      <point x="495" y="494" type="curve" smooth="yes"/>
      <point x="495" y="406" type="line" smooth="yes"/>
      <point x="495" y="405"/>
      <point x="495" y="405"/>
      <point x="494" y="405" type="curve" smooth="yes"/>
      <point x="406" y="405" type="line" smooth="yes"/>
      <point x="405" y="405"/>
      <point x="405" y="405"/>
      <point x="405" y="406" type="curve" smooth="yes"/>
      <point x="405" y="494" type="line" smooth="yes"/>
      <point x="405" y="495"/>
      <point x="405" y="495"/>
      <point x="406" y="495" type="curve" smooth="yes"/>
    </contour>
    <contour>
      <point x="6" y="395" type="line" smooth="yes"/>
      <point x="94" y="395" type="line" smooth="yes"/>
      <point x="95" y="395"/>
      <point x="95" y="395"/>
      <point x="95" y="394" type="curve" smooth="yes"/>
      <point x="95" y="306" type="line" smooth="yes"/>
      <point x="95" y="305"/>
      <point x="95" y="305"/>
      <point x="94" y="305" type="curve" smooth="yes"/>
      <point x="6" y="305" type="line" smooth="yes"/>
      <point x="5" y="305"/>
      <point x="5" y="305"/>
      <point x="5" y="306" type="curve" smooth="yes"/>
      <point x="5" y="394" type="line" smooth="yes"/>
      <point x="5" y="395"/>
      <point x="5" y="395"/>
      <point x="6" y="395" type="curve" smooth="yes"/>
    </contour>
    <contour>
      <point x="106" y="395" type="line" smooth="yes"/>
      <point x="194" y="395" type="line" smooth="yes"/>
      <point x="195" y="395"/>
      <point x="195" y="395"/>
      <point x="195" y="394" type="curve" smooth="yes"/>
      <point x="195" y="306" type="line" smooth="yes"/>
      <point x="195" y="305"/>
      <point x="195" y="305"/>
      <point x="194" y="305" type="curve" smooth="yes"/>
      <point x="106" y="305" type="line" smooth="yes"/>
      <point x="105" y="305"/>
      <point x="105" y="305"/>
      <point x="105" y="306" type="curve" smooth="yes"/>
      <point x="105" y="394" type="line" smooth="yes"/>
      <point x="105" y="395"/>
      <point x="105" y="395"/>
      <point x="106" y="395" type="curve" smooth="yes"/>
    </contour>
    <contour>
      <point x="206" y="395" type="line" smooth="yes"/>
      <point x="294" y="395" type="line" smooth="yes"/>
      <point x="295" y="395"/>
      <point x="295" y="395"/>
      <point x="295" y="394" type="curve" smooth="yes"/>
      <point x="295" y="306" type="line" smooth="yes"/>
      <point x="295" y="305"/>
      <point x="295" y="305"/>
      <point x="294" y="305" type="curve" smooth="yes"/>
      <point x="206" y="305" type="line" smooth="yes"/>
      <point x="205" y="305"/>
      <point x="205" y="305"/>
      <point x="205" y="306" type="curve" smooth="yes"/>
      <point x="205" y="394" type="line" smooth="yes"/>
      <point x="205" y="395"/>
      <point x="205" y="395"/>
      <point x="206" y="395" type="curve" smooth="yes"/>
    </contour>
    <contour>
      <point x="306" y="395" type="line" smooth="yes"/>
      <point x="394" y="395" type="line" smooth="yes"/>
      <point x="395" y="395"/>
      <point x="395" y="395"/>
      <point x="395" y="394" type="curve" smooth="yes"/>
      <point x="395" y="306" type="line" smooth="yes"/>
      <point x="395" y="305"/>
      <point x="395" y="305"/>
      <point x="394" y="305" type="curve" smooth="yes"/>
      <point x="306" y="305" type="line" smooth="yes"/>
      <point x="305" y="305"/>
      <point x="305" y="305"/>
      <point x="305" y="306" type="curve" smooth="yes"/>
      <point x="305" y="394" type="line" smooth="yes"/>
      <point x="305" y="395"/>
      <point x="305" y="395"/>
      <point x="306" y="395" type="curve" smooth="yes"/>
    </contour>
    <contour>
      <point x="6" y="295" type="line" smooth="yes"/>
      <point x="94" y="295" type="line" smooth="yes"/>
      <point x="95" y="295"/>
      <point x="95" y="295"/>
      <point x="95" y="294" type="curve" smooth="yes"/>
      <point x="95" y="206" type="line" smooth="yes"/>
      <point x="95" y="205"/>
      <point x="95" y="205"/>
      <point x="94" y="205" type="curve" smooth="yes"/>
      <point x="6" y="205" type="line" smooth="yes"/>
      <point x="5" y="205"/>
      <point x="5" y="205"/>
      <point x="5" y="206" type="curve" smooth="yes"/>
      <point x="5" y="294" type="line" smooth="yes"/>
      <point x="5" y="295"/>
      <point x="5" y="295"/>
      <point x="6" y="295" type="curve" smooth="yes"/>
    </contour>
    <contour>
      <point x="6" y="195" type="line" smooth="yes"/>
      <point x="94" y="195" type="line" smooth="yes"/>
      <point x="95" y="195"/>
      <point x="95" y="195"/>
      <point x="95" y="194" type="curve" smooth="yes"/>
      <point x="95" y="106" type="line" smooth="yes"/>
      <point x="95" y="105"/>
      <point x="95" y="105"/>
      <point x="94" y="105" type="curve" smooth="yes"/>
      <point x="6" y="105" type="line" smooth="yes"/>
      <point x="5" y="105"/>
      <point x="5" y="105"/>
      <point x="5" y="106" type="curve" smooth="yes"/>
      <point x="5" y="194" type="line" smooth="yes"/>
      <point x="5" y="195"/>
      <point x="5" y="195"/>
      <point x="6" y="195" type="curve" smooth="yes"/>
    </contour>
    <contour>
      <point x="6" y="95" type="line" smooth="yes"/>
      <point x="94" y="95" type="line" smooth="yes"/>
      <point x="95" y="95"/>
      <point x="95" y="95"/>
      <point x="95" y="94" type="curve" smooth="yes"/>
      <point x="95" y="6" type="line" smooth="yes"/>
      <point x="95" y="5"/>
      <point x="95" y="5"/>
      <point x="94" y="5" type="curve" smooth="yes"/>
      <point x="6" y="5" type="line" smooth="yes"/>
      <point x="5" y="5"/>
      <point x="5" y="5"/>
      <point x="5" y="6" type="curve" smooth="yes"/>
      <point x="5" y="94" type="line" smooth="yes"/>
      <point x="5" y="95"/>
      <point x="5" y="95"/>
      <point x="6" y="95" type="curve" smooth="yes"/>
    </contour>
  </outline>
</glyph>
<glyph name="ccedilla" format="2">
  <advance width="600"/>
  <unicode hex="00E7"/>
  <outline>
    <contour>
      <point x="106" y="495" type="line" smooth="yes"/>
      <point x="194" y="495" type="line" smooth="yes"/>
      <point x="195" y="495"/>
      <point x="195" y="495"/>
      <point x="195" y="494" type="curve" smooth="yes"/>
      <point x="195" y="406" type="line" smooth="yes"/>
      <point x="195" y="405"/>
      <point x="195" y="405"/>
      <point x="194" y="405" type="curve" smooth="yes"/>
      <point x="106" y="405" type="line" smooth="yes"/>
      <point x="105" y="405"/>
      <point x="105" y="405"/>
      <point x="105" y="406" type="curve" smooth="yes"/>
      <point x="105" y="494" type="line" smooth="yes"/>
      <point x="105" y="495"/>
      <point x="105" y="495"/>
      <point x="106" y="495" type="curve" smooth="yes"/>
    </contour>
    <contour>
      <point x="206" y="495" type="line" smooth="yes"/>
      <point x="294" y="495" type="line" smooth="yes"/>
      <point x="295" y="495"/>
      <point x="295" y="495"/>
      <point x="295" y="494" type="curve" smooth="yes"/>
      <point x="295" y="406" type="line" smooth="yes"/>
      <point x="295" y="405"/>
      <point x="295" y="405"/>
      <point x="294" y="405" type="curve" smooth="yes"/>
      <point x="206" y="405" type="line" smooth="yes"/>
      <point x="205" y="405"/>
      <point x="205" y="405"/>
      <point x="205" y="406" type="curve" smooth="yes"/>
      <point x="205" y="494" type="line" smooth="yes"/>
      <point x="205" y="495"/>
      <point x="205" y="495"/>
      <point x="206" y="495" type="curve" smooth="yes"/>
    </contour>
    <contour>
      <point x="306" y="495" type="line" smooth="yes"/>
      <point x="394" y="495" type="line" smooth="yes"/>
      <point x="395" y="495"/>
      <point x="395" y="495"/>
      <point x="395" y="494" type="curve" smooth="yes"/>
      <point x="395" y="406" type="line" smooth="yes"/>
      <point x="395" y="405"/>
      <point x="395" y="405"/>
      <point x="394" y="405" type="curve" smooth="yes"/>
      <point x="306" y="405" type="line" smooth="yes"/>
      <point x="305" y="405"/>
      <point x="305" y="405"/>
      <point x="305" y="406" type="curve" smooth="yes"/>
      <point x="305" y="494" type="line" smooth="yes"/>
      <point x="305" y="495"/>
      <point x="305" y="495"/>
      <point x="306" y="495" type="curve" smooth="yes"/>
    </contour>
    <contour>
      <point x="6" y="395" type="line" smooth="yes"/>
      <point x="94" y="395" type="line" smooth="yes"/>
      <point x="95" y="395"/>
      <point x="95" y="395"/>
      <point x="95" y="394" type="curve" smooth="yes"/>
      <point x="95" y="306" type="line" smooth="yes"/>
      <point x="95" y="305"/>
      <point x="95" y="305"/>
      <point x="94" y="305" type="curve" smooth="yes"/>
      <point x="6" y="305" type="line" smooth="yes"/>
      <point x="5" y="305"/>
      <point x="5" y="305"/>
      <point x="5" y="306" type="curve" smooth="yes"/>
      <point x="5" y="394" type="line" smooth="yes"/>
      <point x="5" y="395"/>
      <point x="5" y="395"/>
      <point x="6" y="395" type="curve" smooth="yes"/>
    </contour>
    <contour>
      <point x="406" y="395" type="line" smooth="yes"/>
      <point x="494" y="395" type="line" smooth="yes"/>
      <point x="495" y="395"/>
      <point x="495" y="395"/>
      <point x="495" y="394" type="curve" smooth="yes"/>
      <point x="495" y="306" type="line" smooth="yes"/>
      <point x="495" y="305"/>
      <point x="495" y="305"/>
      <point x="494" y="305" type="curve" smooth="yes"/>
      <point x="406" y="305" type="line" smooth="yes"/>
      <point x="405" y="305"/>
      <point x="405" y="305"/>
      <point x="405" y="306" type="curve" smooth="yes"/>
      <point x="405" y="394" type="line" smooth="yes"/>
      <point x="405" y="395"/>
      <point x="405" y="395"/>
      <point x="406" y="395" type="curve" smooth="yes"/>
    </contour>
    <contour>
      <point x="6" y="295" type="line" smooth="yes"/>
      <point x="94" y="295" type="line" smooth="yes"/>
      <point x="95" y="295"/>
      <point x="95" y="295"/>
      <point x="95" y="294" type="curve" smooth="yes"/>
      <point x="95" y="206" type="line" smooth="yes"/>
      <point x="95" y="205"/>
      <point x="95" y="205"/>
      <point x="94" y="205" type="curve" smooth="yes"/>
      <point x="6" y="205" type="line" smooth="yes"/>
      <point x="5" y="205"/>
      <point x="5" y="205"/>
      <point x="5" y="206" type="curve" smooth="yes"/>
      <point x="5" y="294" type="line" smooth="yes"/>
      <point x="5" y="295"/>
      <point x="5" y="295"/>
      <point x="6" y="295" type="curve" smooth="yes"/>
    </contour>
    <contour>
      <point x="6" y="195" type="line" smooth="yes"/>
      <point x="94" y="195" type="line" smooth="yes"/>
      <point x="95" y="195"/>
      <point x="95" y="195"/>
      <point x="95" y="194" type="curve" smooth="yes"/>
      <point x="95" y="106" type="line" smooth="yes"/>
      <point x="95" y="105"/>
      <point x="95" y="105"/>
      <point x="94" y="105" type="curve" smooth="yes"/>
      <point x="6" y="105" type="line" smooth="yes"/>
      <point x="5" y="105"/>
      <point x="5" y="105"/>
      <point x="5" y="106" type="curve" smooth="yes"/>
      <point x="5" y="194" type="line" smooth="yes"/>
      <point x="5" y="195"/>
      <point x="5" y="195"/>
      <point x="6" y="195" type="curve" smooth="yes"/>
    </contour>
    <contour>
      <point x="406" y="195" type="line" smooth="yes"/>
      <point x="494" y="195" type="line" smooth="yes"/>
      <point x="495" y="195"/>
      <point x="495" y="195"/>
      <point x="495" y="194" type="curve" smooth="yes"/>
      <point x="495" y="106" type="line" smooth="yes"/>
      <point x="495" y="105"/>
      <point x="495" y="105"/>
      <point x="494" y="105" type="curve" smooth="yes"/>
      <point x="406" y="105" type="line" smooth="yes"/>
      <point x="405" y="105"/>
      <point x="405" y="105"/>
      <point x="405" y="106" type="curve" smooth="yes"/>
      <point x="405" y="194" type="line" smooth="yes"/>
      <point x="405" y="195"/>
      <point x="405" y="195"/>
      <point x="406" y="195" type="curve" smooth="yes"/>
    </contour>
    <contour>
      <point x="106" y="95" type="line" smooth="yes"/>
      <point x="194" y="95" type="line" smooth="yes"/>
      <point x="195" y="95"/>
      <point x="195" y="95"/>
      <point x="195" y="94" type="curve" smooth="yes"/>
      <point x="195" y="6" type="line" smooth="yes"/>
      <point x="195" y="5"/>
      <point x="195" y="5"/>
      <point x="194" y="5" type="curve" smooth="yes"/>
      <point x="106" y="5" type="line" smooth="yes"/>
      <point x="105" y="5"/>
      <point x="105" y="5"/>
      <point x="105" y="6" type="curve" smooth="yes"/>
      <point x="105" y="94" type="line" smooth="yes"/>
      <point x="105" y="95"/>
      <point x="105" y="95"/>
      <point x="106" y="95" type="curve" smooth="yes"/>
    </contour>
    <contour>
      <point x="206" y="95" type="line" smooth="yes"/>
      <point x="294" y="95" type="line" smooth="yes"/>
      <point x="295" y="95"/>
      <point x="295" y="95"/>
      <point x="295" y="94" type="curve" smooth="yes"/>
      <point x="295" y="6" type="line" smooth="yes"/>
      <point x="295" y="5"/>
      <point x="295" y="5"/>
      <point x="294" y="5" type="curve" smooth="yes"/>
      <point x="206" y="5" type="line" smooth="yes"/>
      <point x="205" y="5"/>
      <point x="205" y="5"/>
      <point x="205" y="6" type="curve" smooth="yes"/>
      <point x="205" y="94" type="line" smooth="yes"/>
      <point x="205" y="95"/>
      <point x="205" y="95"/>
      <point x="206" y="95" type="curve" smooth="yes"/>
    </contour>
    <contour>
      <point x="306" y="95" type="line" smooth="yes"/>
      <point x="394" y="95" type="line" smooth="yes"/>
      <point x="395" y="95"/>
      <point x="395" y="95"/>
      <point x="395" y="94" type="curve" smooth="yes"/>
      <point x="395" y="6" type="line" smooth="yes"/>
      <point x="395" y="5"/>
      <point x="395" y="5"/>
      <point x="394" y="5" type="curve" smooth="yes"/>
      <point x="306" y="5" type="line" smooth="yes"/>
      <point x="305" y="5"/>
      <point x="305" y="5"/>
      <point x="305" y="6" type="curve" smooth="yes"/>
      <point x="305" y="94" type="line" smooth="yes"/>
      <point x="305" y="95"/>
      <point x="305" y="95"/>
      <point x="306" y="95" type="curve" smooth="yes"/>
    </contour>
    <contour>
      <point x="206" y="-5" type="line" smooth="yes"/>
      <point x="294" y="-5" type="line" smooth="yes"/>
      <point x="295" y="-5"/>
      <point x="295" y="-5"/>
      <point x="295" y="-6" type="curve" smooth="yes"/>
      <point x="295" y="-94" type="line" smooth="yes"/>
      <point x="295" y="-95"/>
      <point x="295" y="-95"/>
      <point x="294" y="-95" type="curve" smooth="yes"/>
      <point x="206" y="-95" type="line" smooth="yes"/>
      <point x="205" y="-95"/>
      <point x="205" y="-95"/>
      <point x="205" y="-94" type="curve" smooth="yes"/>
      <point x="205" y="-6" type="line" smooth="yes"/>
      <point x="205" y="-5"/>
      <point x="205" y="-5"/>
      <point x="206" y="-5" type="curve" smooth="yes"/>
    </contour>
    <contour>
      <point x="106" y="-105" type="line" smooth="yes"/>
      <point x="194" y="-105" type="line" smooth="yes"/>
      <point x="195" y="-105"/>
      <point x="195" y="-105"/>
      <point x="195" y="-106" type="curve" smooth="yes"/>
      <point x="195" y="-194" type="line" smooth="yes"/>
      <point x="195" y="-195"/>
      <point x="195" y="-195"/>
      <point x="194" y="-195" type="curve" smooth="yes"/>
      <point x="106" y="-195" type="line" smooth="yes"/>
      <point x="105" y="-195"/>
      <point x="105" y="-195"/>
      <point x="105" y="-194" type="curve" smooth="yes"/>
      <point x="105" y="-106" type="line" smooth="yes"/>
      <point x="105" y="-105"/>
      <point x="105" y="-105"/>
      <point x="106" y="-105" type="curve" smooth="yes"/>
    </contour>
  </outline>
</glyph>
<glyph name="Aogonek" format="2">
  <advance width="600"/>
  <unicode hex="0104"/>
  <outline>
    <contour>
      <point x="206" y="695" type="line" smooth="yes"/>
      <point x="294" y="695" type="line" smooth="yes"/>
      <point x="295" y="695"/>
      <point x="295" y="695"/>
      <point x="295" y="694" type="curve" smooth="yes"/>
      <point x="295" y="606" type="line" smooth="yes"/>
      <point x="295" y="605"/>
      <point x="295" y="605"/>
      <point x="294" y="605" type="curve" smooth="yes"/>
      <point x="206" y="605" type="line" smooth="yes"/>
      <point x="205" y="605"/>
      <point x="205" y="605"/>
      <point x="205" y="606" type="curve" smooth="yes"/>
      <point x="205" y="694" type="line" smooth="yes"/>
      <point x="205" y="695"/>
      <point x="205" y="695"/>
      <point x="206" y="695" type="curve" smooth="yes"/>
    </contour>
    <contour>
      <point x="106" y="595" type="line" smooth="yes"/>
      <point x="194" y="595" type="line" smooth="yes"/>
      <point x="195" y="595"/>
      <point x="195" y="595"/>
      <point x="195" y="594" type="curve" smooth="yes"/>
      <point x="195" y="506" type="line" smooth="yes"/>
      <point x="195" y="505"/>
      <point x="195" y="505"/>
      <point x="194" y="505" type="curve" smooth="yes"/>
      <point x="106" y="505" type="line" smooth="yes"/>
      <point x="105" y="505"/>
      <point x="105" y="505"/>
      <point x="105" y="506" type="curve" smooth="yes"/>
      <point x="105" y="594" type="line" smooth="yes"/>
      <point x="105" y="595"/>
      <point x="105" y="595"/>
      <point x="106" y="595" type="curve" smooth="yes"/>
    </contour>
    <contour>
      <point x="306" y="595" type="line" smooth="yes"/>
      <point x="394" y="595" type="line" smooth="yes"/>
      <point x="395" y="595"/>
      <point x="395" y="595"/>
      <point x="395" y="594" type="curve" smooth="yes"/>
      <point x="395" y="506" type="line" smooth="yes"/>
      <point x="395" y="505"/>
      <point x="395" y="505"/>
      <point x="394" y="505" type="curve" smooth="yes"/>
      <point x="306" y="505" type="line" smooth="yes"/>
      <point x="305" y="505"/>
      <point x="305" y="505"/>
      <point x="305" y="506" type="curve" smooth="yes"/>
      <point x="305" y="594" type="line" smooth="yes"/>
      <point x="305" y="595"/>
      <point x="305" y="595"/>
      <point x="306" y="595" type="curve" smooth="yes"/>
    </contour>
    <contour>
      <point x="6" y="495" type="line" smooth="yes"/>
      <point x="94" y="495" type="line" smooth="yes"/>
      <point x="95" y="495"/>
      <point x="95" y="495"/>
      <point x="95" y="494" type="curve" smooth="yes"/>
      <point x="95" y="406" type="line" smooth="yes"/>
      <point x="95" y="405"/>
      <point x="95" y="405"/>
      <point x="94" y="405" type="curve" smooth="yes"/>
      <point x="6" y="405" type="line" smooth="yes"/>
      <point x="5" y="405"/>
      <point x="5" y="405"/>
      <point x="5" y="406" type="curve" smooth="yes"/>
      <point x="5" y="494" type="line" smooth="yes"/>
      <point x="5" y="495"/>
      <point x="5" y="495"/>
      <point x="6" y="495" type="curve" smooth="yes"/>
    </contour>
    <contour>
      <point x="406" y="495" type="line" smooth="yes"/>
      <point x="494" y="495" type="line" smooth="yes"/>
      <point x="495" y="495"/>
      <point x="495" y="495"/>
      <point x="495" y="494" type="curve" smooth="yes"/>
      <point x="495" y="406" type="line" smooth="yes"/>
      <point x="495" y="405"/>
      <point x="495" y="405"/>
      <point x="494" y="405" type="curve" smooth="yes"/>
      <point x="406" y="405" type="line" smooth="yes"/>
      <point x="405" y="405"/>
      <point x="405" y="405"/>
      <point x="405" y="406" type="curve" smooth="yes"/>
      <point x="405" y="494" type="line" smooth="yes"/>
      <point x="405" y="495"/>
      <point x="405" y="495"/>
      <point x="406" y="495" type="curve" smooth="yes"/>
    </contour>
    <contour>
      <point x="6" y="395" type="line" smooth="yes"/>
      <point x="94" y="395" type="line" smooth="yes"/>
      <point x="95" y="395"/>
      <point x="95" y="395"/>
      <point x="95" y="394" type="curve" smooth="yes"/>
      <point x="95" y="306" type="line" smooth="yes"/>
      <point x="95" y="305"/>
      <point x="95" y="305"/>
      <point x="94" y="305" type="curve" smooth="yes"/>
      <point x="6" y="305" type="line" smooth="yes"/>
      <point x="5" y="305"/>
      <point x="5" y="305"/>
      <point x="5" y="306" type="curve" smooth="yes"/>
      <point x="5" y="394" type="line" smooth="yes"/>
      <point x="5" y="395"/>
      <point x="5" y="395"/>
      <point x="6" y="395" type="curve" smooth="yes"/>
    </contour>
    <contour>
      <point x="406" y="395" type="line" smooth="yes"/>
      <point x="494" y="395" type="line" smooth="yes"/>
      <point x="495" y="395"/>
      <point x="495" y="395"/>
      <point x="495" y="394" type="curve" smooth="yes"/>
      <point x="495" y="306" type="line" smooth="yes"/>
      <point x="495" y="305"/>
      <point x="495" y="305"/>
      <point x="494" y="305" type="curve" smooth="yes"/>
      <point x="406" y="305" type="line" smooth="yes"/>
      <point x="405" y="305"/>
      <point x="405" y="305"/>
      <point x="405" y="306" type="curve" smooth="yes"/>
      <point x="405" y="394" type="line" smooth="yes"/>
      <point x="405" y="395"/>
      <point x="405" y="395"/>
      <point x="406" y="395" type="curve" smooth="yes"/>
    </contour>
    <contour>
      <point x="6" y="295" type="line" smooth="yes"/>
      <point x="94" y="295" type="line" smooth="yes"/>
      <point x="95" y="295"/>
      <point x="95" y="295"/>
      <point x="95" y="294" type="curve" smooth="yes"/>
      <point x="95" y="206" type="line" smooth="yes"/>
      <point x="95" y="205"/>
      <point x="95" y="205"/>
      <point x="94" y="205" type="curve" smooth="yes"/>
      <point x="6" y="205" type="line" smooth="yes"/>
      <point x="5" y="205"/>
      <point x="5" y="205"/>
      <point x="5" y="206" type="curve" smooth="yes"/>
      <point x="5" y="294" type="line" smooth="yes"/>
      <point x="5" y="295"/>
      <point x="5" y="295"/>
      <point x="6" y="295" type="curve" smooth="yes"/>
    </contour>
    <contour>
      <point x="106" y="295" type="line" smooth="yes"/>
      <point x="194" y="295" type="line" smooth="yes"/>
      <point x="195" y="295"/>
      <point x="195" y="295"/>
      <point x="195" y="294" type="curve" smooth="yes"/>
      <point x="195" y="206" type="line" smooth="yes"/>
      <point x="195" y="205"/>
      <point x="195" y="205"/>
      <point x="194" y="205" type="curve" smooth="yes"/>
      <point x="106" y="205" type="line" smooth="yes"/>
      <point x="105" y="205"/>
      <point x="105" y="205"/>
      <point x="105" y="206" type="curve" smooth="yes"/>
      <point x="105" y="294" type="line" smooth="yes"/>
      <point x="105" y="295"/>
      <point x="105" y="295"/>
      <point x="106" y="295" type="curve" smooth="yes"/>
    </contour>
    <contour>
      <point x="206" y="295" type="line" smooth="yes"/>
      <point x="294" y="295" type="line" smooth="yes"/>
      <point x="295" y="295"/>
      <point x="295" y="295"/>
      <point x="295" y="294" type="curve" smooth="yes"/>
      <point x="295" y="206" type="line" smooth="yes"/>
      <point x="295" y="205"/>
      <point x="295" y="205"/>
      <point x="294" y="205" type="curve" smooth="yes"/>
      <point x="206" y="205" type="line" smooth="yes"/>
      <point x="205" y="205"/>
      <point x="205" y="205"/>
      <point x="205" y="206" type="curve" smooth="yes"/>
      <point x="205" y="294" type="line" smooth="yes"/>
      <point x="205" y="295"/>
      <point x="205" y="295"/>
      <point x="206" y="295" type="curve" smooth="yes"/>
    </contour>
    <contour>
      <point x="306" y="295" type="line" smooth="yes"/>
      <point x="394" y="295" type="line" smooth="yes"/>
      <point x="395" y="295"/>
      <point x="395" y="295"/>
      <point x="395" y="294" type="curve" smooth="yes"/>
      <point x="395" y="206" type="line" smooth="yes"/>
      <point x="395" y="205"/>
      <point x="395" y="205"/>
      <point x="394" y="205" type="curve" smooth="yes"/>
      <point x="306" y="205" type="line" smooth="yes"/>
      <point x="305" y="205"/>
      <point x="305" y="205"/>
      <point x="305" y="206" type="curve" smooth="yes"/>
      <point x="305" y="294" type="line" smooth="yes"/>
      <point x="305" y="295"/>
      <point x="305" y="295"/>
      <point x="306" y="295" type="curve" smooth="yes"/>
    </contour>
    <contour>
      <point x="406" y="295" type="line" smooth="yes"/>
      <point x="494" y="295" type="line" smooth="yes"/>
      <point x="495" y="295"/>
      <point x="495" y="295"/>
      <point x="495" y="294" type="curve" smooth="yes"/>
      <point x="495" y="206" type="line" smooth="yes"/>
      <point x="495" y="205"/>
      <point x="495" y="205"/>
      <point x="494" y="205" type="curve" smooth="yes"/>
      <point x="406" y="205" type="line" smooth="yes"/>
      <point x="405" y="205"/>
      <point x="405" y="205"/>
      <point x="405" y="206" type="curve" smooth="yes"/>
      <point x="405" y="294" type="line" smooth="yes"/>
      <point x="405" y="295"/>
      <point x="405" y="295"/>
      <point x="406" y="295" type="curve" smooth="yes"/>
    </contour>
    <contour>
      <point x="6" y="195" type="line" smooth="yes"/>
      <point x="94" y="195" type="line" smooth="yes"/>
      <point x="95" y="195"/>
      <point x="95" y="195"/>
      <point x="95" y="194" type="curve" smooth="yes"/>
      <point x="95" y="106" type="line" smooth="yes"/>
      <point x="95" y="105"/>
      <point x="95" y="105"/>
      <point x="94" y="105" type="curve" smooth="yes"/>
      <point x="6" y="105" type="line" smooth="yes"/>
      <point x="5" y="105"/>
      <point x="5" y="105"/>
      <point x="5" y="106" type="curve" smooth="yes"/>
      <point x="5" y="194" type="line" smooth="yes"/>
      <point x="5" y="195"/>
      <point x="5" y="195"/>
      <point x="6" y="195" type="curve" smooth="yes"/>
    </contour>
    <contour>
      <point x="406" y="195" type="line" smooth="yes"/>
      <point x="494" y="195" type="line" smooth="yes"/>
      <point x="495" y="195"/>
      <point x="495" y="195"/>
      <point x="495" y="194" type="curve" smooth="yes"/>
      <point x="495" y="106" type="line" smooth="yes"/>
      <point x="495" y="105"/>
      <point x="495" y="105"/>
      <point x="494" y="105" type="curve" smooth="yes"/>
      <point x="406" y="105" type="line" smooth="yes"/>
      <point x="405" y="105"/>
      <point x="405" y="105"/>
      <point x="405" y="106" type="curve" smooth="yes"/>
      <point x="405" y="194" type="line" smooth="yes"/>
      <point x="405" y="195"/>
      <point x="405" y="195"/>
      <point x="406" y="195" type="curve" smooth="yes"/>
    </contour>
    <contour>
      <point x="6" y="95" type="line" smooth="yes"/>
      <point x="94" y="95" type="line" smooth="yes"/>
      <point x="95" y="95"/>
      <point x="95" y="95"/>
      <point x="95" y="94" type="curve" smooth="yes"/>
      <point x="95" y="6" type="line" smooth="yes"/>
      <point x="95" y="5"/>
      <point x="95" y="5"/>
      <point x="94" y="5" type="curve" smooth="yes"/>
      <point x="6" y="5" type="line" smooth="yes"/>
      <point x="5" y="5"/>
      <point x="5" y="5"/>
      <point x="5" y="6" type="curve" smooth="yes"/>
      <point x="5" y="94" type="line" smooth="yes"/>
      <point x="5" y="95"/>
      <point x="5" y="95"/>
      <point x="6" y="95" type="curve" smooth="yes"/>
    </contour>
    <contour>
      <point x="406" y="95" type="line" smooth="yes"/>
      <point x="494" y="95" type="line" smooth="yes"/>
      <point x="495" y="95"/>
      <point x="495" y="95"/>
      <point x="495" y="94" type="curve" smooth="yes"/>
      <point x="495" y="6" type="line" smooth="yes"/>
      <point x="495" y="5"/>
      <point x="495" y="5"/>
      <point x="494" y="5" type="curve" smooth="yes"/>
      <point x="406" y="5" type="line" smooth="yes"/>
      <point x="405" y="5"/>
      <point x="405" y="5"/>
      <point x="405" y="6" type="curve" smooth="yes"/>
      <point x="405" y="94" type="line" smooth="yes"/>
      <point x="405" y="95"/>
      <point x="405" y="95"/>
      <point x="406" y="95" type="curve" smooth="yes"/>
    </contour>
    <contour>
      <point x="306" y="-5" type="line" smooth="yes"/>
      <point x="394" y="-5" type="line" smooth="yes"/>
      <point x="395" y="-5"/>
      <point x="395" y="-5"/>
      <point x="395" y="-6" type="curve" smooth="yes"/>
      <point x="395" y="-94" type="line" smooth="yes"/>
      <point x="395" y="-95"/>
      <point x="395" y="-95"/>
      <point x="394" y="-95" type="curve" smooth="yes"/>
      <point x="306" y="-95" type="line" smooth="yes"/>
      <point x="305" y="-95"/>
      <point x="305" y="-95"/>
      <point x="305" y="-94" type="curve" smooth="yes"/>
      <point x="305" y="-6" type="line" smooth="yes"/>
      <point x="305" y="-5"/>
      <point x="305" y="-5"/>
      <point x="306" y="-5" type="curve" smooth="yes"/>
    </contour>
    <contour>
      <point x="306" y="-105" type="line" smooth="yes"/>
      <point x="394" y="-105" type="line" smooth="yes"/>
      <point x="395" y="-105"/>
      <point x="395" y="-105"/>
      <point x="395" y="-106" type="curve" smooth="yes"/>
      <point x="395" y="-194" type="line" smooth="yes"/>
      <point x="395" y="-195"/>
      <point x="395" y="-195"/>
      <point x="394" y="-195" type="curve" smooth="yes"/>
      <point x="306" y="-195" type="line" smooth="yes"/>
      <point x="305" y="-195"/>
      <point x="305" y="-195"/>
      <point x="305" y="-194" type="curve" smooth="yes"/>
      <point x="305" y="-106" type="line" smooth="yes"/>
      <point x="305" y="-105"/>
      <point x="305" y="-105"/>
      <point x="306" y="-105" type="curve" smooth="yes"/>
    </contour>
    <contour>
      <point x="406" y="-105" type="line" smooth="yes"/>
      <point x="494" y="-105" type="line" smooth="yes"/>
      <point x="495" y="-105"/>
      <point x="495" y="-105"/>
      <point x="495" y="-106" type="curve" smooth="yes"/>
      <point x="495" y="-194" type="line" smooth="yes"/>
      <point x="495" y="-195"/>
      <point x="495" y="-195"/>
      <point x="494" y="-195" type="curve" smooth="yes"/>
      <point x="406" y="-195" type="line" smooth="yes"/>
      <point x="405" y="-195"/>
      <point x="405" y="-195"/>
      <point x="405" y="-194" type="curve" smooth="yes"/>
      <point x="405" y="-106" type="line" smooth="yes"/>
      <point x="405" y="-105"/>
      <point x="405" y="-105"/>
      <point x="406" y="-105" type="curve" smooth="yes"/>
    </contour>
  </outline>
</glyph>
<glyph name="Gdotaccent" format="2">
  <advance width="600"/>
  <unicode hex="0120"/>
  <outline>
    <contour>
      <point x="206" y="795" type="line" smooth="yes"/>
      <point x="294" y="795" type="line" smooth="yes"/>
      <point x="295" y="795"/>
      <point x="295" y="795"/>
      <point x="295" y="794" type="curve" smooth="yes"/>
      <point x="295" y="706" type="line" smooth="yes"/>
      <point x="295" y="705"/>
      <point x="295" y="705"/>
      <point x="294" y="705" type="curve" smooth="yes"/>
      <point x="206" y="705" type="line" smooth="yes"/>
      <point x="205" y="705"/>
      <point x="205" y="705"/>
      <point x="205" y="706" type="curve" smooth="yes"/>
      <point x="205" y="794" type="line" smooth="yes"/>
      <point x="205" y="795"/>
      <point x="205" y="795"/>
      <point x="206" y="795" type="curve" smooth="yes"/>
    </contour>
    <contour>
      <point x="106" y="595" type="line" smooth="yes"/>
      <point x="194" y="595" type="line" smooth="yes"/>
      <point x="195" y="595"/>
      <point x="195" y="595"/>
      <point x="195" y="594" type="curve" smooth="yes"/>
      <point x="195" y="506" type="line" smooth="yes"/>
      <point x="195" y="505"/>
      <point x="195" y="505"/>
      <point x="194" y="505" type="curve" smooth="yes"/>
      <point x="106" y="505" type="line" smooth="yes"/>
      <point x="105" y="505"/>
      <point x="105" y="505"/>
      <point x="105" y="506" type="curve" smooth="yes"/>
      <point x="105" y="594" type="line" smooth="yes"/>
      <point x="105" y="595"/>
      <point x="105" y="595"/>
      <point x="106" y="595" type="curve" smooth="yes"/>
    </contour>
    <contour>
      <point x="206" y="595" type="line" smooth="yes"/>
      <point x="294" y="595" type="line" smooth="yes"/>
      <point x="295" y="595"/>
      <point x="295" y="595"/>
      <point x="295" y="594" type="curve" smooth="yes"/>
      <point x="295" y="506" type="line" smooth="yes"/>
      <point x="295" y="505"/>
      <point x="295" y="505"/>
      <point x="294" y="505" type="curve" smooth="yes"/>
      <point x="206" y="505" type="line" smooth="yes"/>
      <point x="205" y="505"/>
      <point x="205" y="505"/>
      <point x="205" y="506" type="curve" smooth="yes"/>
      <point x="205" y="594" type="line" smooth="yes"/>
      <point x="205" y="595"/>
      <point x="205" y="595"/>
      <point x="206" y="595" type="curve" smooth="yes"/>
    </contour>
    <contour>
      <point x="306" y="595" type="line" smooth="yes"/>
      <point x="394" y="595" type="line" smooth="yes"/>
      <point x="395" y="595"/>
      <point x="395" y="595"/>
      <point x="395" y="594" type="curve" smooth="yes"/>
      <point x="395" y="506" type="line" smooth="yes"/>
      <point x="395" y="505"/>
      <point x="395" y="505"/>
      <point x="394" y="505" type="curve" smooth="yes"/>
      <point x="306" y="505" type="line" smooth="yes"/>
      <point x="305" y="505"/>
      <point x="305" y="505"/>
      <point x="305" y="506" type="curve" smooth="yes"/>
      <point x="305" y="594" type="line" smooth="yes"/>
      <point x="305" y="595"/>
      <point x="305" y="595"/>
      <point x="306" y="595" type="curve" smooth="yes"/>
    </contour>
    <contour>
      <point x="6" y="495" type="line" smooth="yes"/>
      <point x="94" y="495" type="line" smooth="yes"/>
      <point x="95" y="495"/>
      <point x="95" y="495"/>
      <point x="95" y="494" type="curve" smooth="yes"/>
      <point x="95" y="406" type="line" smooth="yes"/>
      <point x="95" y="405"/>
      <point x="95" y="405"/>
      <point x="94" y="405" type="curve" smooth="yes"/>
      <point x="6" y="405" type="line" smooth="yes"/>
      <point x="5" y="405"/>
      <point x="5" y="405"/>
      <point x="5" y="406" type="curve" smooth="yes"/>
      <point x="5" y="494" type="line" smooth="yes"/>
      <point x="5" y="495"/>
      <point x="5" y="495"/>
      <point x="6" y="495" type="curve" smooth="yes"/>
    </contour>
    <contour>
      <point x="406" y="495" type="line" smooth="yes"/>
      <point x="494" y="495" type="line" smooth="yes"/>
      <point x="495" y="495"/>
      <point x="495" y="495"/>
      <point x="495" y="494" type="curve" smooth="yes"/>
      <point x="495" y="406" type="line" smooth="yes"/>
      <point x="495" y="405"/>
      <point x="495" y="405"/>
      <point x="494" y="405" type="curve" smooth="yes"/>
      <point x="406" y="405" type="line" smooth="yes"/>
      <point x="405" y="405"/>
      <point x="405" y="405"/>
      <point x="405" y="406" type="curve" smooth="yes"/>
      <point x="405" y="494" type="line" smooth="yes"/>
      <point x="405" y="495"/>
      <point x="405" y="495"/>
      <point x="406" y="495" type="curve" smooth="yes"/>
    </contour>
    <contour>
      <point x="6" y="395" type="line" smooth="yes"/>
      <point x="94" y="395" type="line" smooth="yes"/>
      <point x="95" y="395"/>
      <point x="95" y="395"/>
      <point x="95" y="394" type="curve" smooth="yes"/>
      <point x="95" y="306" type="line" smooth="yes"/>
      <point x="95" y="305"/>
      <point x="95" y="305"/>
      <point x="94" y="305" type="curve" smooth="yes"/>
      <point x="6" y="305" type="line" smooth="yes"/>
      <point x="5" y="305"/>
      <point x="5" y="305"/>
      <point x="5" y="306" type="curve" smooth="yes"/>
      <point x="5" y="394" type="line" smooth="yes"/>
      <point x="5" y="395"/>
      <point x="5" y="395"/>
      <point x="6" y="395" type="curve" smooth="yes"/>
    </contour>
    <contour>
      <point x="6" y="295" type="line" smooth="yes"/>
      <point x="94" y="295" type="line" smooth="yes"/>
      <point x="95" y="295"/>
      <point x="95" y="295"/>
      <point x="95" y="294" type="curve" smooth="yes"/>
      <point x="95" y="206" type="line" smooth="yes"/>
      <point x="95" y="205"/>
      <point x="95" y="205"/>
      <point x="94" y="205" type="curve" smooth="yes"/>
      <point x="6" y="205" type="line" smooth="yes"/>
      <point x="5" y="205"/>
      <point x="5" y="205"/>
      <point x="5" y="206" type="curve" smooth="yes"/>
      <point x="5" y="294" type="line" smooth="yes"/>
      <point x="5" y="295"/>
      <point x="5" y="295"/>
      <point x="6" y="295" type="curve" smooth="yes"/>
    </contour>
    <contour>
      <point x="306" y="295" type="line" smooth="yes"/>
      <point x="394" y="295" type="line" smooth="yes"/>
      <point x="395" y="295"/>
      <point x="395" y="295"/>
      <point x="395" y="294" type="curve" smooth="yes"/>
      <point x="395" y="206" type="line" smooth="yes"/>
      <point x="395" y="205"/>
      <point x="395" y="205"/>
      <point x="394" y="205" type="curve" smooth="yes"/>
      <point x="306" y="205" type="line" smooth="yes"/>
      <point x="305" y="205"/>
      <point x="305" y="205"/>
      <point x="305" y="206" type="curve" smooth="yes"/>
      <point x="305" y="294" type="line" smooth="yes"/>
      <point x="305" y="295"/>
      <point x="305" y="295"/>
      <point x="306" y="295" type="curve" smooth="yes"/>
    </contour>
    <contour>
      <point x="406" y="295" type="line" smooth="yes"/>
      <point x="494" y="295" type="line" smooth="yes"/>
      <point x="495" y="295"/>
      <point x="495" y="295"/>
      <point x="495" y="294" type="curve" smooth="yes"/>
      <point x="495" y="206" type="line" smooth="yes"/>
      <point x="495" y="205"/>
      <point x="495" y="205"/>
      <point x="494" y="205" type="curve" smooth="yes"/>
      <point x="406" y="205" type="line" smooth="yes"/>
      <point x="405" y="205"/>
      <point x="405" y="205"/>
      <point x="405" y="206" type="curve" smooth="yes"/>
      <point x="405" y="294" type="line" smooth="yes"/>
      <point x="405" y="295"/>
      <point x="405" y="295"/>
      <point x="406" y="295" type="curve" smooth="yes"/>
    </contour>
    <contour>
      <point x="6" y="195" type="line" smooth="yes"/>
      <point x="94" y="195" type="line" smooth="yes"/>
      <point x="95" y="195"/>
      <point x="95" y="195"/>
      <point x="95" y="194" type="curve" smooth="yes"/>
      <point x="95" y="106" type="line" smooth="yes"/>
      <point x="95" y="105"/>
      <point x="95" y="105"/>
      <point x="94" y="105" type="curve" smooth="yes"/>
      <point x="6" y="105" type="line" smooth="yes"/>
      <point x="5" y="105"/>
      <point x="5" y="105"/>
      <point x="5" y="106" type="curve" smooth="yes"/>
      <point x="5" y="194" type="line" smooth="yes"/>
      <point x="5" y="195"/>
      <point x="5" y="195"/>
      <point x="6" y="195" type="curve" smooth="yes"/>
    </contour>
    <contour>
      <point x="406" y="195" type="line" smooth="yes"/>
      <point x="494" y="195" type="line" smooth="yes"/>
      <point x="495" y="195"/>
      <point x="495" y="195"/>
      <point x="495" y="194" type="curve" smooth="yes"/>
      <point x="495" y="106" type="line" smooth="yes"/>
      <point x="495" y="105"/>
      <point x="495" y="105"/>
      <point x="494" y="105" type="curve" smooth="yes"/>
      <point x="406" y="105" type="line" smooth="yes"/>
      <point x="405" y="105"/>
      <point x="405" y="105"/>
      <point x="405" y="106" type="curve" smooth="yes"/>
      <point x="405" y="194" type="line" smooth="yes"/>
      <point x="405" y="195"/>
      <point x="405" y="195"/>
      <point x="406" y="195" type="curve" smooth="yes"/>
    </contour>
    <contour>
      <point x="106" y="95" type="line" smooth="yes"/>
      <point x="194" y="95" type="line" smooth="yes"/>
      <point x="195" y="95"/>
      <point x="195" y="95"/>
      <point x="195" y="94" type="curve" smooth="yes"/>
      <point x="195" y="6" type="line" smooth="yes"/>
      <point x="195" y="5"/>
      <point x="195" y="5"/>
      <point x="194" y="5" type="curve" smooth="yes"/>
      <point x="106" y="5" type="line" smooth="yes"/>
      <point x="105" y="5"/>
      <point x="105" y="5"/>
      <point x="105" y="6" type="curve" smooth="yes"/>
      <point x="105" y="94" type="line" smooth="yes"/>
      <point x="105" y="95"/>
      <point x="105" y="95"/>
      <point x="106" y="95" type="curve" smooth="yes"/>
    </contour>
    <contour>
      <point x="206" y="95" type="line" smooth="yes"/>
      <point x="294" y="95" type="line" smooth="yes"/>
      <point x="295" y="95"/>
      <point x="295" y="95"/>
      <point x="295" y="94" type="curve" smooth="yes"/>
      <point x="295" y="6" type="line" smooth="yes"/>
      <point x="295" y="5"/>
      <point x="295" y="5"/>
      <point x="294" y="5" type="curve" smooth="yes"/>
      <point x="206" y="5" type="line" smooth="yes"/>
      <point x="205" y="5"/>
      <point x="205" y="5"/>
      <point x="205" y="6" type="curve" smooth="yes"/>
      <point x="205" y="94" type="line" smooth="yes"/>
      <point x="205" y="95"/>
      <point x="205" y="95"/>
      <point x="206" y="95" type="curve" smooth="yes"/>
    </contour>
    <contour>
      <point x="306" y="95" type="line" smooth="yes"/>
      <point x="394" y="95" type="line" smooth="yes"/>
      <point x="395" y="95"/>
      <point x="395" y="95"/>
      <point x="395" y="94" type="curve" smooth="yes"/>
      <point x="395" y="6" type="line" smooth="yes"/>
      <point x="395" y="5"/>
      <point x="395" y="5"/>
      <point x="394" y="5" type="curve" smooth="yes"/>
      <point x="306" y="5" type="line" smooth="yes"/>
      <point x="305" y="5"/>
      <point x="305" y="5"/>
      <point x="305" y="6" type="curve" smooth="yes"/>
      <point x="305" y="94" type="line" smooth="yes"/>
      <point x="305" y="95"/>
      <point x="305" y="95"/>
      <point x="306" y="95" type="curve" smooth="yes"/>
    </contour>
  </outline>
</glyph>
<glyph name="uni0123" format="2">
  <advance width="600"/>
  <unicode hex="0123"/>
  <outline>
    <contour>
      <point x="106" y="795" type="line" smooth="yes"/>
      <point x="194" y="795" type="line" smooth="yes"/>
      <point x="195" y="795"/>
      <point x="195" y="795"/>
      <point x="195" y="794" type="curve" smooth="yes"/>
      <point x="195" y="706" type="line" smooth="yes"/>
      <point x="195" y="705"/>
      <point x="195" y="705"/>
      <point x="194" y="705" type="curve" smooth="yes"/>
      <point x="106" y="705" type="line" smooth="yes"/>
      <point x="105" y="705"/>
      <point x="105" y="705"/>
      <point x="105" y="706" type="curve" smooth="yes"/>
      <point x="105" y="794" type="line" smooth="yes"/>
      <point x="105" y="795"/>
      <point x="105" y="795"/>
      <point x="106" y="795" type="curve" smooth="yes"/>
    </contour>
    <contour>
      <point x="106" y="695" type="line" smooth="yes"/>
      <point x="194" y="695" type="line" smooth="yes"/>
      <point x="195" y="695"/>
      <point x="195" y="695"/>
      <point x="195" y="694" type="curve" smooth="yes"/>
      <point x="195" y="606" type="line" smooth="yes"/>
      <point x="195" y="605"/>
      <point x="195" y="605"/>
      <point x="194" y="605" type="curve" smooth="yes"/>
      <point x="106" y="605" type="line" smooth="yes"/>
      <point x="105" y="605"/>
      <point x="105" y="605"/>
      <point x="105" y="606" type="curve" smooth="yes"/>
      <point x="105" y="694" type="line" smooth="yes"/>
      <point x="105" y="695"/>
      <point x="105" y="695"/>
      <point x="106" y="695" type="curve" smooth="yes"/>
    </contour>
    <contour>
      <point x="206" y="695" type="line" smooth="yes"/>
      <point x="294" y="695" type="line" smooth="yes"/>
      <point x="295" y="695"/>
      <point x="295" y="695"/>
      <point x="295" y="694" type="curve" smooth="yes"/>
      <point x="295" y="606" type="line" smooth="yes"/>
      <point x="295" y="605"/>
      <point x="295" y="605"/>
      <point x="294" y="605" type="curve" smooth="yes"/>
      <point x="206" y="605" type="line" smooth="yes"/>
      <point x="205" y="605"/>
      <point x="205" y="605"/>
      <point x="205" y="606" type="curve" smooth="yes"/>
      <point x="205" y="694" type="line" smooth="yes"/>
      <point x="205" y="695"/>
      <point x="205" y="695"/>
      <point x="206" y="695" type="curve" smooth="yes"/>
    </contour>
    <contour>
      <point x="106" y="495" type="line" smooth="yes"/>
      <point x="194" y="495" type="line" smooth="yes"/>
      <point x="195" y="495"/>
      <point x="195" y="495"/>
      <point x="195" y="494" type="curve" smooth="yes"/>
      <point x="195" y="406" type="line" smooth="yes"/>
      <point x="195" y="405"/>
      <point x="195" y="405"/>
      <point x="194" y="405" type="curve" smooth="yes"/>
      <point x="106" y="405" type="line" smooth="yes"/>
      <point x="105" y="405"/>
      <point x="105" y="405"/>
      <point x="105" y="406" type="curve" smooth="yes"/>
      <point x="105" y="494" type="line" smooth="yes"/>
      <point x="105" y="495"/>
      <point x="105" y="495"/>
      <point x="106" y="495" type="curve" smooth="yes"/>
    </contour>
    <contour>
      <point x="206" y="495" type="line" smooth="yes"/>
      <point x="294" y="495" type="line" smooth="yes"/>
      <point x="295" y="495"/>
      <point x="295" y="495"/>
      <point x="295" y="494" type="curve" smooth="yes"/>
      <point x="295" y="406" type="line" smooth="yes"/>
      <point x="295" y="405"/>
      <point x="295" y="405"/>
      <point x="294" y="405" type="curve" smooth="yes"/>
      <point x="206" y="405" type="line" smooth="yes"/>
      <point x="205" y="405"/>
      <point x="205" y="405"/>
      <point x="205" y="406" type="curve" smooth="yes"/>
      <point x="205" y="494" type="line" smooth="yes"/>
      <point x="205" y="495"/>
      <point x="205" y="495"/>
      <point x="206" y="495" type="curve" smooth="yes"/>
    </contour>
    <contour>
      <point x="406" y="495" type="line" smooth="yes"/>
      <point x="494" y="495" type="line" smooth="yes"/>
      <point x="495" y="495"/>
      <point x="495" y="495"/>
      <point x="495" y="494" type="curve" smooth="yes"/>
      <point x="495" y="406" type="line" smooth="yes"/>
      <point x="495" y="405"/>
      <point x="495" y="405"/>
      <point x="494" y="405" type="curve" smooth="yes"/>
      <point x="406" y="405" type="line" smooth="yes"/>
      <point x="405" y="405"/>
      <point x="405" y="405"/>
      <point x="405" y="406" type="curve" smooth="yes"/>
      <point x="405" y="494" type="line" smooth="yes"/>
      <point x="405" y="495"/>
      <point x="405" y="495"/>
      <point x="406" y="495" type="curve" smooth="yes"/>
    </contour>
    <contour>
      <point x="6" y="395" type="line" smooth="yes"/>
      <point x="94" y="395" type="line" smooth="yes"/>
      <point x="95" y="395"/>
      <point x="95" y="395"/>
      <point x="95" y="394" type="curve" smooth="yes"/>
      <point x="95" y="306" type="line" smooth="yes"/>
      <point x="95" y="305"/>
      <point x="95" y="305"/>
      <point x="94" y="305" type="curve" smooth="yes"/>
      <point x="6" y="305" type="line" smooth="yes"/>
      <point x="5" y="305"/>
      <point x="5" y="305"/>
      <point x="5" y="306" type="curve" smooth="yes"/>
      <point x="5" y="394" type="line" smooth="yes"/>
      <point x="5" y="395"/>
      <point x="5" y="395"/>
      <point x="6" y="395" type="curve" smooth="yes"/>
    </contour>
    <contour>
      <point x="306" y="395" type="line" smooth="yes"/>
      <point x="394" y="395" type="line" smooth="yes"/>
      <point x="395" y="395"/>
      <point x="395" y="395"/>
      <point x="395" y="394" type="curve" smooth="yes"/>
      <point x="395" y="306" type="line" smooth="yes"/>
      <point x="395" y="305"/>
      <point x="395" y="305"/>
      <point x="394" y="305" type="curve" smooth="yes"/>
      <point x="306" y="305" type="line" smooth="yes"/>
      <point x="305" y="305"/>
      <point x="305" y="305"/>
      <point x="305" y="306" type="curve" smooth="yes"/>
      <point x="305" y="394" type="line" smooth="yes"/>
      <point x="305" y="395"/>
      <point x="305" y="395"/>
      <point x="306" y="395" type="curve" smooth="yes"/>
    </contour>
    <contour>
      <point x="106" y="295" type="line" smooth="yes"/>
      <point x="194" y="295" type="line" smooth="yes"/>
      <point x="195" y="295"/>
      <point x="195" y="295"/>
      <point x="195" y="294" type="curve" smooth="yes"/>
      <point x="195" y="206" type="line" smooth="yes"/>
      <point x="195" y="205"/>
      <point x="195" y="205"/>
      <point x="194" y="205" type="curve" smooth="yes"/>
      <point x="106" y="205" type="line" smooth="yes"/>
      <point x="105" y="205"/>
      <point x="105" y="205"/>
      <point x="105" y="206" type="curve" smooth="yes"/>
      <point x="105" y="294" type="line" smooth="yes"/>
      <point x="105" y="295"/>
      <point x="105" y="295"/>
      <point x="106" y="295" type="curve" smooth="yes"/>
    </contour>
    <contour>
      <point x="206" y="295" type="line" smooth="yes"/>
      <point x="294" y="295" type="line" smooth="yes"/>
      <point x="295" y="295"/>
      <point x="295" y="295"/>
      <point x="295" y="294" type="curve" smooth="yes"/>
      <point x="295" y="206" type="line" smooth="yes"/>
      <point x="295" y="205"/>
      <point x="295" y="205"/>
      <point x="294" y="205" type="curve" smooth="yes"/>
      <point x="206" y="205" type="line" smooth="yes"/>
      <point x="205" y="205"/>
      <point x="205" y="205"/>
      <point x="205" y="206" type="curve" smooth="yes"/>
      <point x="205" y="294" type="line" smooth="yes"/>
      <point x="205" y="295"/>
      <point x="205" y="295"/>
      <point x="206" y="295" type="curve" smooth="yes"/>
    </contour>
    <contour>
      <point x="6" y="195" type="line" smooth="yes"/>
      <point x="94" y="195" type="line" smooth="yes"/>
      <point x="95" y="195"/>
      <point x="95" y="195"/>
      <point x="95" y="194" type="curve" smooth="yes"/>
      <point x="95" y="106" type="line" smooth="yes"/>
      <point x="95" y="105"/>
      <point x="95" y="105"/>
      <point x="94" y="105" type="curve" smooth="yes"/>
      <point x="6" y="105" type="line" smooth="yes"/>
      <point x="5" y="105"/>
      <point x="5" y="105"/>
      <point x="5" y="106" type="curve" smooth="yes"/>
      <point x="5" y="194" type="line" smooth="yes"/>
      <point x="5" y="195"/>
      <point x="5" y="195"/>
      <point x="6" y="195" type="curve" smooth="yes"/>
    </contour>
    <contour>
      <point x="106" y="95" type="line" smooth="yes"/>
      <point x="194" y="95" type="line" smooth="yes"/>
      <point x="195" y="95"/>
      <point x="195" y="95"/>
      <point x="195" y="94" type="curve" smooth="yes"/>
      <point x="195" y="6" type="line" smooth="yes"/>
      <point x="195" y="5"/>
      <point x="195" y="5"/>
      <point x="194" y="5" type="curve" smooth="yes"/>
      <point x="106" y="5" type="line" smooth="yes"/>
      <point x="105" y="5"/>
      <point x="105" y="5"/>
      <point x="105" y="6" type="curve" smooth="yes"/>
      <point x="105" y="94" type="line" smooth="yes"/>
      <point x="105" y="95"/>
      <point x="105" y="95"/>
      <point x="106" y="95" type="curve" smooth="yes"/>
    </contour>
    <contour>
      <point x="206" y="95" type="line" smooth="yes"/>
      <point x="294" y="95" type="line" smooth="yes"/>
      <point x="295" y="95"/>
      <point x="295" y="95"/>
      <point x="295" y="94" type="curve" smooth="yes"/>
      <point x="295" y="6" type="line" smooth="yes"/>
      <point x="295" y="5"/>
      <point x="295" y="5"/>
      <point x="294" y="5" type="curve" smooth="yes"/>
      <point x="206" y="5" type="line" smooth="yes"/>
      <point x="205" y="5"/>
      <point x="205" y="5"/>
      <point x="205" y="6" type="curve" smooth="yes"/>
      <point x="205" y="94" type="line" smooth="yes"/>
      <point x="205" y="95"/>
      <point x="205" y="95"/>
      <point x="206" y="95" type="curve" smooth="yes"/>
    </contour>
    <contour>
      <point x="306" y="95" type="line" smooth="yes"/>
      <point x="394" y="95" type="line" smooth="yes"/>
      <point x="395" y="95"/>
      <point x="395" y="95"/>
      <point x="395" y="94" type="curve" smooth="yes"/>
      <point x="395" y="6" type="line" smooth="yes"/>
      <point x="395" y="5"/>
      <point x="395" y="5"/>
      <point x="394" y="5" type="curve" smooth="yes"/>
      <point x="306" y="5" type="line" smooth="yes"/>
      <point x="305" y="5"/>
      <point x="305" y="5"/>
      <point x="305" y="6" type="curve" smooth="yes"/>
      <point x="305" y="94" type="line" smooth="yes"/>
      <point x="305" y="95"/>
      <point x="305" y="95"/>
      <point x="306" y="95" type="curve" smooth="yes"/>
    </contour>
    <contour>
      <point x="6" y="-5" type="line" smooth="yes"/>
      <point x="94" y="-5" type="line" smooth="yes"/>
      <point x="95" y="-5"/>
      <point x="95" y="-5"/>
      <point x="95" y="-6" type="curve" smooth="yes"/>
      <point x="95" y="-94" type="line" smooth="yes"/>
      <point x="95" y="-95"/>
      <point x="95" y="-95"/>
      <point x="94" y="-95" type="curve" smooth="yes"/>
      <point x="6" y="-95" type="line" smooth="yes"/>
      <point x="5" y="-95"/>
      <point x="5" y="-95"/>
      <point x="5" y="-94" type="curve" smooth="yes"/>
      <point x="5" y="-6" type="line" smooth="yes"/>
      <point x="5" y="-5"/>
      <point x="5" y="-5"/>
      <point x="6" y="-5" type="curve" smooth="yes"/>
    </contour>
    <contour>
      <point x="406" y="-5" type="line" smooth="yes"/>
      <point x="494" y="-5" type="line" smooth="yes"/>
      <point x="495" y="-5"/>
      <point x="495" y="-5"/>
      <point x="495" y="-6" type="curve" smooth="yes"/>
      <point x="495" y="-94" type="line" smooth="yes"/>
      <point x="495" y="-95"/>
      <point x="495" y="-95"/>
      <point x="494" y="-95" type="curve" smooth="yes"/>
      <point x="406" y="-95" type="line" smooth="yes"/>
      <point x="405" y="-95"/>
      <point x="405" y="-95"/>
      <point x="405" y="-94" type="curve" smooth="yes"/>
      <point x="405" y="-6" type="line" smooth="yes"/>
      <point x="405" y="-5"/>
      <point x="405" y="-5"/>
      <point x="406" y="-5" type="curve" smooth="yes"/>
    </contour>
    <contour>
      <point x="106" y="-105" type="line" smooth="yes"/>
      <point x="194" y="-105" type="line" smooth="yes"/>
      <point x="195" y="-105"/>
      <point x="195" y="-105"/>
      <point x="195" y="-106" type="curve" smooth="yes"/>
      <point x="195" y="-194" type="line" smooth="yes"/>
      <point x="195" y="-195"/>
      <point x="195" y="-195"/>
      <point x="194" y="-195" type="curve" smooth="yes"/>
      <point x="106" y="-195" type="line" smooth="yes"/>
      <point x="105" y="-195"/>
      <point x="105" y="-195"/>
      <point x="105" y="-194" type="curve" smooth="yes"/>
      <point x="105" y="-106" type="line" smooth="yes"/>
      <point x="105" y="-105"/>
      <point x="105" y="-105"/>
      <point x="106" y="-105" type="curve" smooth="yes"/>
    </contour>
    <contour>
      <point x="206" y="-105" type="line" smooth="yes"/>
      <point x="294" y="-105" type="line" smooth="yes"/>
      <point x="295" y="-105"/>
      <point x="295" y="-105"/>
      <point x="295" y="-106" type="curve" smooth="yes"/>
      <point x="295" y="-194" type="line" smooth="yes"/>
      <point x="295" y="-195"/>
      <point x="295" y="-195"/>
      <point x="294" y="-195" type="curve" smooth="yes"/>
      <point x="206" y="-195" type="line" smooth="yes"/>
      <point x="205" y="-195"/>
      <point x="205" y="-195"/>
      <point x="205" y="-194" type="curve" smooth="yes"/>
      <point x="205" y="-106" type="line" smooth="yes"/>
      <point x="205" y="-105"/>
      <point x="205" y="-105"/>
      <point x="206" y="-105" type="curve" smooth="yes"/>
    </contour>
    <contour>
      <point x="306" y="-105" type="line" smooth="yes"/>
      <point x="394" y="-105" type="line" smooth="yes"/>
      <point x="395" y="-105"/>
      <point x="395" y="-105"/>
      <point x="395" y="-106" type="curve" smooth="yes"/>
      <point x="395" y="-194" type="line" smooth="yes"/>
      <point x="395" y="-195"/>
      <point x="395" y="-195"/>
      <point x="394" y="-195" type="curve" smooth="yes"/>
      <point x="306" y="-195" type="line" smooth="yes"/>
      <point x="305" y="-195"/>
      <point x="305" y="-195"/>
      <point x="305" y="-194" type="curve" smooth="yes"/>
      <point x="305" y="-106" type="line" smooth="yes"/>
      <point x="305" y="-105"/>
      <point x="305" y="-105"/>
      <point x="306" y="-105" type="curve" smooth="yes"/>
    </contour>
  </outline>
</glyph>
<glyph name="ncaron" format="2">
  <advance width="600"/>
  <unicode hex="0148"/>
  <outline>
    <contour>
      <point x="106" y="795" type="line" smooth="yes"/>
      <point x="194" y="795" type="line" smooth="yes"/>
      <point x="195" y="795"/>
      <point x="195" y="795"/>
      <point x="195" y="794" type="curve" smooth="yes"/>
      <point x="195" y="706" type="line" smooth="yes"/>
      <point x="195" y="705"/>
      <point x="195" y="705"/>
      <point x="194" y="705" type="curve" smooth="yes"/>
      <point x="106" y="705" type="line" smooth="yes"/>
      <point x="105" y="705"/>
      <point x="105" y="705"/>
      <point x="105" y="706" type="curve" smooth="yes"/>
      <point x="105" y="794" type="line" smooth="yes"/>
      <point x="105" y="795"/>
      <point x="105" y="795"/>
      <point x="106" y="795" type="curve" smooth="yes"/>
    </contour>
    <contour>
      <point x="306" y="795" type="line" smooth="yes"/>
      <point x="394" y="795" type="line" smooth="yes"/>
      <point x="395" y="795"/>
      <point x="395" y="795"/>
      <point x="395" y="794" type="curve" smooth="yes"/>
      <point x="395" y="706" type="line" smooth="yes"/>
      <point x="395" y="705"/>
      <point x="395" y="705"/>
      <point x="394" y="705" type="curve" smooth="yes"/>
      <point x="306" y="705" type="line" smooth="yes"/>
      <point x="305" y="705"/>
      <point x="305" y="705"/>
      <point x="305" y="706" type="curve" smooth="yes"/>
      <point x="305" y="794" type="line" smooth="yes"/>
      <point x="305" y="795"/>
      <point x="305" y="795"/>
      <point x="306" y="795" type="curve" smooth="yes"/>
    </contour>
    <contour>
      <point x="206" y="695" type="line" smooth="yes"/>
      <point x="294" y="695" type="line" smooth="yes"/>
      <point x="295" y="695"/>
      <point x="295" y="695"/>
      <point x="295" y="694" type="curve" smooth="yes"/>
      <point x="295" y="606" type="line" smooth="yes"/>
      <point x="295" y="605"/>
      <point x="295" y="605"/>
      <point x="294" y="605" type="curve" smooth="yes"/>
      <point x="206" y="605" type="line" smooth="yes"/>
      <point x="205" y="605"/>
      <point x="205" y="605"/>
      <point x="205" y="606" type="curve" smooth="yes"/>
      <point x="205" y="694" type="line" smooth="yes"/>
      <point x="205" y="695"/>
      <point x="205" y="695"/>
      <point x="206" y="695" type="curve" smooth="yes"/>
    </contour>
    <contour>
      <point x="6" y="495" type="line" smooth="yes"/>
      <point x="94" y="495" type="line" smooth="yes"/>
      <point x="95" y="495"/>
      <point x="95" y="495"/>
      <point x="95" y="494" type="curve" smooth="yes"/>
      <point x="95" y="406" type="line" smooth="yes"/>
      <point x="95" y="405"/>
      <point x="95" y="405"/>
      <point x="94" y="405" type="curve" smooth="yes"/>
      <point x="6" y="405" type="line" smooth="yes"/>
      <point x="5" y="405"/>
      <point x="5" y="405"/>
      <point x="5" y="406" type="curve" smooth="yes"/>
      <point x="5" y="494" type="line" smooth="yes"/>
      <point x="5" y="495"/>
      <point x="5" y="495"/>
      <point x="6" y="495" type="curve" smooth="yes"/>
    </contour>
    <contour>
      <point x="206" y="495" type="line" smooth="yes"/>
      <point x="294" y="495" type="line" smooth="yes"/>
      <point x="295" y="495"/>
      <point x="295" y="495"/>
      <point x="295" y="494" type="curve" smooth="yes"/>
      <point x="295" y="406" type="line" smooth="yes"/>
      <point x="295" y="405"/>
      <point x="295" y="405"/>
      <point x="294" y="405" type="curve" smooth="yes"/>
      <point x="206" y="405" type="line" smooth="yes"/>
      <point x="205" y="405"/>
      <point x="205" y="405"/>
      <point x="205" y="406" type="curve" smooth="yes"/>
      <point x="205" y="494" type="line" smooth="yes"/>
      <point x="205" y="495"/>
      <point x="205" y="495"/>
      <point x="206" y="495" type="curve" smooth="yes"/>
    </contour>
    <contour>
      <point x="306" y="495" type="line" smooth="yes"/>
      <point x="394" y="495" type="line" smooth="yes"/>
      <point x="395" y="495"/>
      <point x="395" y="495"/>
      <point x="395" y="494" type="curve" smooth="yes"/>
      <point x="395" y="406" type="line" smooth="yes"/>
      <point x="395" y="405"/>
      <point x="395" y="405"/>
      <point x="394" y="405" type="curve" smooth="yes"/>
      <point x="306" y="405" type="line" smooth="yes"/>
      <point x="305" y="405"/>
      <point x="305" y="405"/>
      <point x="305" y="406" type="curve" smooth="yes"/>
      <point x="305" y="494" type="line" smooth="yes"/>
      <point x="305" y="495"/>
      <point x="305" y="495"/>
      <point x="306" y="495" type="curve" smooth="yes"/>
    </contour>
    <contour>
      <point x="6" y="395" type="line" smooth="yes"/>
      <point x="94" y="395" type="line" smooth="yes"/>
      <point x="95" y="395"/>
      <point x="95" y="395"/>
      <point x="95" y="394" type="curve" smooth="yes"/>
      <point x="95" y="306" type="line" smooth="yes"/>
      <point x="95" y="305"/>
      <point x="95" y="305"/>
      <point x="94" y="305" type="curve" smooth="yes"/>
      <point x="6" y="305" type="line" smooth="yes"/>
      <point x="5" y="305"/>
      <point x="5" y="305"/>
      <point x="5" y="306" type="curve" smooth="yes"/>
      <point x="5" y="394" type="line" smooth="yes"/>
      <point x="5" y="395"/>
      <point x="5" y="395"/>
      <point x="6" y="395" type="curve" smooth="yes"/>
    </contour>
    <contour>
      <point x="106" y="395" type="line" smooth="yes"/>
      <point x="194" y="395" type="line" smooth="yes"/>
      <point x="195" y="395"/>
      <point x="195" y="395"/>
      <point x="195" y="394" type="curve" smooth="yes"/>
      <point x="195" y="306" type="line" smooth="yes"/>
      <point x="195" y="305"/>
      <point x="195" y="305"/>
      <point x="194" y="305" type="curve" smooth="yes"/>
      <point x="106" y="305" type="line" smooth="yes"/>
      <point x="105" y="305"/>
      <point x="105" y="305"/>
      <point x="105" y="306" type="curve" smooth="yes"/>
      <point x="105" y="394" type="line" smooth="yes"/>
      <point x="105" y="395"/>
      <point x="105" y="395"/>
      <point x="106" y="395" type="curve" smooth="yes"/>
    </contour>
    <contour>
      <point x="406" y="395" type="line" smooth="yes"/>
      <point x="494" y="395" type="line" smooth="yes"/>
      <point x="495" y="395"/>
      <point x="495" y="395"/>
      <point x="495" y="394" type="curve" smooth="yes"/>
      <point x="495" y="306" type="line" smooth="yes"/>
      <point x="495" y="305"/>
      <point x="495" y="305"/>
      <point x="494" y="305" type="curve" smooth="yes"/>
      <point x="406" y="305" type="line" smooth="yes"/>
      <point x="405" y="305"/>
      <point x="405" y="305"/>
      <point x="405" y="306" type="curve" smooth="yes"/>
      <point x="405" y="394" type="line" smooth="yes"/>
      <point x="405" y="395"/>
      <point x="405" y="395"/>
      <point x="406" y="395" type="curve" smooth="yes"/>
    </contour>
    <contour>
      <point x="6" y="295" type="line" smooth="yes"/>
      <point x="94" y="295" type="line" smooth="yes"/>
      <point x="95" y="295"/>
      <point x="95" y="295"/>
      <point x="95" y="294" type="curve" smooth="yes"/>
      <point x="95" y="206" type="line" smooth="yes"/>
      <point x="95" y="205"/>
      <point x="95" y="205"/>
      <point x="94" y="205" type="curve" smooth="yes"/>
      <point x="6" y="205" type="line" smooth="yes"/>
      <point x="5" y="205"/>
      <point x="5" y="205"/>
      <point x="5" y="206" type="curve" smooth="yes"/>
      <point x="5" y="294" type="line" smooth="yes"/>
      <point x="5" y="295"/>
      <point x="5" y="295"/>
      <point x="6" y="295" type="curve" smooth="yes"/>
    </contour>
    <contour>
      <point x="406" y="295" type="line" smooth="yes"/>
      <point x="494" y="295" type="line" smooth="yes"/>
      <point x="495" y="295"/>
      <point x="495" y="295"/>
      <point x="495" y="294" type="curve" smooth="yes"/>
      <point x="495" y="206" type="line" smooth="yes"/>
      <point x="495" y="205"/>
      <point x="495" y="205"/>
      <point x="494" y="205" type="curve" smooth="yes"/>
      <point x="406" y="205" type="line" smooth="yes"/>
      <point x="405" y="205"/>
      <point x="405" y="205"/>
      <point x="405" y="206" type="curve" smooth="yes"/>
      <point x="405" y="294" type="line" smooth="yes"/>
      <point x="405" y="295"/>
      <point x="405" y="295"/>
      <point x="406" y="295" type="curve" smooth="yes"/>
    </contour>
    <contour>
      <point x="6" y="195" type="line" smooth="yes"/>
      <point x="94" y="195" type="line" smooth="yes"/>
      <point x="95" y="195"/>
      <point x="95" y="195"/>
      <point x="95" y="194" type="curve" smooth="yes"/>
      <point x="95" y="106" type="line" smooth="yes"/>
      <point x="95" y="105"/>
      <point x="95" y="105"/>
      <point x="94" y="105" type="curve" smooth="yes"/>
      <point x="6" y="105" type="line" smooth="yes"/>
      <point x="5" y="105"/>
      <point x="5" y="105"/>
      <point x="5" y="106" type="curve" smooth="yes"/>
      <point x="5" y="194" type="line" smooth="yes"/>
      <point x="5" y="195"/>
      <point x="5" y="195"/>
      <point x="6" y="195" type="curve" smooth="yes"/>
    </contour>
    <contour>
      <point x="406" y="195" type="line" smooth="yes"/>
      <point x="494" y="195" type="line" smooth="yes"/>
      <point x="495" y="195"/>
      <point x="495" y="195"/>
      <point x="495" y="194" type="curve" smooth="yes"/>
      <point x="495" y="106" type="line" smooth="yes"/>
      <point x="495" y="105"/>
      <point x="495" y="105"/>
      <point x="494" y="105" type="curve" smooth="yes"/>
      <point x="406" y="105" type="line" smooth="yes"/>
      <point x="405" y="105"/>
      <point x="405" y="105"/>
      <point x="405" y="106" type="curve" smooth="yes"/>
      <point x="405" y="194" type="line" smooth="yes"/>
      <point x="405" y="195"/>
      <point x="405" y="195"/>
      <point x="406" y="195" type="curve" smooth="yes"/>
    </contour>
    <contour>
      <point x="6" y="95" type="line" smooth="yes"/>
      <point x="94" y="95" type="line" smooth="yes"/>
      <point x="95" y="95"/>
      <point x="95" y="95"/>
      <point x="95" y="94" type="curve" smooth="yes"/>
      <point x="95" y="6" type="line" smooth="yes"/>
      <point x="95" y="5"/>
      <point x="95" y="5"/>
      <point x="94" y="5" type="curve" smooth="yes"/>
      <point x="6" y="5" type="line" smooth="yes"/>
      <point x="5" y="5"/>
      <point x="5" y="5"/>
      <point x="5" y="6" type="curve" smooth="yes"/>
      <point x="5" y="94" type="line" smooth="yes"/>
      <point x="5" y="95"/>
      <point x="5" y="95"/>
      <point x="6" y="95" type="curve" smooth="yes"/>
    </contour>
    <contour>
      <point x="406" y="95" type="line" smooth="yes"/>
      <point x="494" y="95" type="line" smooth="yes"/>
      <point x="495" y="95"/>
      <point x="495" y="95"/>
      <point x="495" y="94" type="curve" smooth="yes"/>
      <point x="495" y="6" type="line" smooth="yes"/>
      <point x="495" y="5"/>
      <point x="495" y="5"/>
      <point x="494" y="5" type="curve" smooth="yes"/>
      <point x="406" y="5" type="line" smooth="yes"/>
      <point x="405" y="5"/>
      <point x="405" y="5"/>
      <point x="405" y="6" type="curve" smooth="yes"/>
      <point x="405" y="94" type="line" smooth="yes"/>
      <point x="405" y="95"/>
      <point x="405" y="95"/>
      <point x="406" y="95" type="curve" smooth="yes"/>
    </contour>
  </outline>
</glyph>
<glyph name="caron" format="2">
  <advance width="600"/>
  <unicode hex="02C7"/>
  <outline>
    <contour>
      <point x="106" y="795" type="line" smooth="yes"/>
      <point x="194" y="795" type="line" smooth="yes"/>
      <point x="195" y="795"/>
      <point x="195" y="795"/>
      <point x="195" y="794" type="curve" smooth="yes"/>
      <point x="195" y="706" type="line" smooth="yes"/>
      <point x="195" y="705"/>
      <point x="195" y="705"/>
      <point x="194" y="705" type="curve" smooth="yes"/>
      <point x="106" y="705" type="line" smooth="yes"/>
      <point x="105" y="705"/>
      <point x="105" y="705"/>
      <point x="105" y="706" type="curve" smooth="yes"/>
      <point x="105" y="794" type="line" smooth="yes"/>
      <point x="105" y="795"/>
      <point x="105" y="795"/>
      <point x="106" y="795" type="curve" smooth="yes"/>
    </contour>
    <contour>
      <point x="306" y="795" type="line" smooth="yes"/>
      <point x="394" y="795" type="line" smooth="yes"/>
      <point x="395" y="795"/>
      <point x="395" y="795"/>
      <point x="395" y="794" type="curve" smooth="yes"/>
      <point x="395" y="706" type="line" smooth="yes"/>
      <point x="395" y="705"/>
      <point x="395" y="705"/>
      <point x="394" y="705" type="curve" smooth="yes"/>
      <point x="306" y="705" type="line" smooth="yes"/>
      <point x="305" y="705"/>
      <point x="305" y="705"/>
      <point x="305" y="706" type="curve" smooth="yes"/>
      <point x="305" y="794" type="line" smooth="yes"/>
      <point x="305" y="795"/>
      <point x="305" y="795"/>
      <point x="306" y="795" type="curve" smooth="yes"/>
    </contour>
    <contour>
      <point x="206" y="695" type="line" smooth="yes"/>
      <point x="294" y="695" type="line" smooth="yes"/>
      <point x="295" y="695"/>
      <point x="295" y="695"/>
      <point x="295" y="694" type="curve" smooth="yes"/>
      <point x="295" y="606" type="line" smooth="yes"/>
      <point x="295" y="605"/>
      <point x="295" y="605"/>
      <point x="294" y="605" type="curve" smooth="yes"/>
      <point x="206" y="605" type="line" smooth="yes"/>
      <point x="205" y="605"/>
      <point x="205" y="605"/>
      <point x="205" y="606" type="curve" smooth="yes"/>
      <point x="205" y="694" type="line" smooth="yes"/>
      <point x="205" y="695"/>
      <point x="205" y="695"/>
      <point x="206" y="695" type="curve" smooth="yes"/>
    </contour>
  </outline>
</glyph>
<glyph name="breve" format="2">
  <advance width="600"/>
  <unicode hex="02D8"/>
  <outline>
    <contour>
      <point x="6" y="795" type="line" smooth="yes"/>
      <point x="94" y="795" type="line" smooth="yes"/>
      <point x="95" y="795"/>
      <point x="95" y="795"/>
      <point x="95" y="794" type="curve" smooth="yes"/>
      <point x="95" y="706" type="line" smooth="yes"/>
      <point x="95" y="705"/>
      <point x="95" y="705"/>
      <point x="94" y="705" type="curve" smooth="yes"/>
      <point x="6" y="705" type="line" smooth="yes"/>
      <point x="5" y="705"/>
      <point x="5" y="705"/>
      <point x="5" y="706" type="curve" smooth="yes"/>
      <point x="5" y="794" type="line" smooth="yes"/>
      <point x="5" y="795"/>
      <point x="5" y="795"/>
      <point x="6" y="795" type="curve" smooth="yes"/>
    </contour>
    <contour>
      <point x="406" y="795" type="line" smooth="yes"/>
      <point x="494" y="795" type="line" smooth="yes"/>
      <point x="495" y="795"/>
      <point x="495" y="795"/>
      <point x="495" y="794" type="curve" smooth="yes"/>
      <point x="495" y="706" type="line" smooth="yes"/>
      <point x="495" y="705"/>
      <point x="495" y="705"/>
      <point x="494" y="705" type="curve" smooth="yes"/>
      <point x="406" y="705" type="line" smooth="yes"/>
      <point x="405" y="705"/>
      <point x="405" y="705"/>
      <point x="405" y="706" type="curve" smooth="yes"/>
      <point x="405" y="794" type="line" smooth="yes"/>
      <point x="405" y="795"/>
      <point x="405" y="795"/>
      <point x="406" y="795" type="curve" smooth="yes"/>
    </contour>
    <contour>
      <point x="106" y="695" type="line" smooth="yes"/>
      <point x="194" y="695" type="line" smooth="yes"/>
      <point x="195" y="695"/>
      <point x="195" y="695"/>
      <point x="195" y="694" type="curve" smooth="yes"/>
      <point x="195" y="606" type="line" smooth="yes"/>
      <point x="195" y="605"/>
      <point x="195" y="605"/>
      <point x="194" y="605" type="curve" smooth="yes"/>
      <point x="106" y="605" type="line" smooth="yes"/>
      <point x="105" y="605"/>
      <point x="105" y="605"/>
      <point x="105" y="606" type="curve" smooth="yes"/>
      <point x="105" y="694" type="line" smooth="yes"/>
      <point x="105" y="695"/>
      <point x="105" y="695"/>
      <point x="106" y="695" type="curve" smooth="yes"/>
    </contour>
    <contour>
      <point x="206" y="695" type="line" smooth="yes"/>
      <point x="294" y="695" type="line" smooth="yes"/>
      <point x="295" y="695"/>
      <point x="295" y="695"/>
      <point x="295" y="694" type="curve" smooth="yes"/>
      <point x="295" y="606" type="line" smooth="yes"/>
      <point x="295" y="605"/>
      <point x="295" y="605"/>
      <point x="294" y="605" type="curve" smooth="yes"/>
      <point x="206" y="605" type="line" smooth="yes"/>
      <point x="205" y="605"/>
      <point x="205" y="605"/>
      <point x="205" y="606" type="curve" smooth="yes"/>
      <point x="205" y="694" type="line" smooth="yes"/>
      <point x="205" y="695"/>
      <point x="205" y="695"/>
      <point x="206" y="695" type="curve" smooth="yes"/>
    </contour>
    <contour>
      <point x="306" y="695" type="line" smooth="yes"/>
      <point x="394" y="695" type="line" smooth="yes"/>
      <point x="395" y="695"/>
      <point x="395" y="695"/>
      <point x="395" y="694" type="curve" smooth="yes"/>
      <point x="395" y="606" type="line" smooth="yes"/>
      <point x="395" y="605"/>
      <point x="395" y="605"/>
      <point x="394" y="605" type="curve" smooth="yes"/>
      <point x="306" y="605" type="line" smooth="yes"/>
      <point x="305" y="605"/>
      <point x="305" y="605"/>
      <point x="305" y="606" type="curve" smooth="yes"/>
      <point x="305" y="694" type="line" smooth="yes"/>
      <point x="305" y="695"/>
      <point x="305" y="695"/>
      <point x="306" y="695" type="curve" smooth="yes"/>
    </contour>
  </outline>
</glyph>
<glyph name="dotaccent" format="2">
  <advance width="600"/>
  <unicode hex="02D9"/>
  <outline>
    <contour>
      <point x="206" y="795" type="line" smooth="yes"/>
      <point x="294" y="795" type="line" smooth="yes"/>
      <point x="295" y="795"/>
      <point x="295" y="795"/>
      <point x="295" y="794" type="curve" smooth="yes"/>
      <point x="295" y="706" type="line" smooth="yes"/>
      <point x="295" y="705"/>
      <point x="295" y="705"/>
      <point x="294" y="705" type="curve" smooth="yes"/>
      <point x="206" y="705" type="line" smooth="yes"/>
      <point x="205" y="705"/>
      <point x="205" y="705"/>
      <point x="205" y="706" type="curve" smooth="yes"/>
      <point x="205" y="794" type="line" smooth="yes"/>
      <point x="205" y="795"/>
      <point x="205" y="795"/>
      <point x="206" y="795" type="curve" smooth="yes"/>
    </contour>
  </outline>
</glyph>
<glyph name="uni0302" format="2">
  <advance width="600"/>
  <unicode hex="0302"/>
  <outline>
    <contour>
      <point x="206" y="795" type="line" smooth="yes"/>
      <point x="294" y="795" type="line" smooth="yes"/>
      <point x="295" y="795"/>
      <point x="295" y="795"/>
      <point x="295" y="794" type="curve" smooth="yes"/>
      <point x="295" y="706" type="line" smooth="yes"/>
      <point x="295" y="705"/>
      <point x="295" y="705"/>
      <point x="294" y="705" type="curve" smooth="yes"/>
      <point x="206" y="705" type="line" smooth="yes"/>
      <point x="205" y="705"/>
      <point x="205" y="705"/>
      <point x="205" y="706" type="curve" smooth="yes"/>
      <point x="205" y="794" type="line" smooth="yes"/>
      <point x="205" y="795"/>
      <point x="205" y="795"/>
      <point x="206" y="795" type="curve" smooth="yes"/>
    </contour>
    <contour>
      <point x="106" y="695" type="line" smooth="yes"/>
      <point x="194" y="695" type="line" smooth="yes"/>
      <point x="195" y="695"/>
      <point x="195" y="695"/>
      <point x="195" y="694" type="curve" smooth="yes"/>
      <point x="195" y="606" type="line" smooth="yes"/>
      <point x="195" y="605"/>
      <point x="195" y="605"/>
      <point x="194" y="605" type="curve" smooth="yes"/>
      <point x="106" y="605" type="line" smooth="yes"/>
      <point x="105" y="605"/>
      <point x="105" y="605"/>
      <point x="105" y="606" type="curve" smooth="yes"/>
      <point x="105" y="694" type="line" smooth="yes"/>
      <point x="105" y="695"/>
      <point x="105" y="695"/>
      <point x="106" y="695" type="curve" smooth="yes"/>
    </contour>
    <contour>
      <point x="306" y="695" type="line" smooth="yes"/>
      <point x="394" y="695" type="line" smooth="yes"/>
      <point x="395" y="695"/>
      <point x="395" y="695"/>
      <point x="395" y="694" type="curve" smooth="yes"/>
      <point x="395" y="606" type="line" smooth="yes"/>
      <point x="395" y="605"/>
      <point x="395" y="605"/>
      <point x="394" y="605" type="curve" smooth="yes"/>
      <point x="306" y="605" type="line" smooth="yes"/>
      <point x="305" y="605"/>
      <point x="305" y="605"/>
      <point x="305" y="606" type="curve" smooth="yes"/>
      <point x="305" y="694" type="line" smooth="yes"/>
      <point x="305" y="695"/>
      <point x="305" y="695"/>
      <point x="306" y="695" type="curve" smooth="yes"/>
    </contour>
  </outline>
</glyph>
<glyph name="uni0304" format="2">
  <advance width="600"/>
  <unicode hex="0304"/>
  <outline>
    <contour>
      <point x="106" y="795" type="line" smooth="yes"/>
      <point x="194" y="795" type="line" smooth="yes"/>
      <point x="195" y="795"/>
      <point x="195" y="795"/>
      <point x="195" y="794" type="curve" smooth="yes"/>
      <point x="195" y="706" type="line" smooth="yes"/>
      <point x="195" y="705"/>
      <point x="195" y="705"/>
      <point x="194" y="705" type="curve" smooth="yes"/>
      <point x="106" y="705" type="line" smooth="yes"/>
      <point x="105" y="705"/>
      <point x="105" y="705"/>
      <point x="105" y="706" type="curve" smooth="yes"/>
      <point x="105" y="794" type="line" smooth="yes"/>
      <point x="105" y="795"/>
      <point x="105" y="795"/>
      <point x="106" y="795" type="curve" smooth="yes"/>
    </contour>
    <contour>
      <point x="206" y="795" type="line" smooth="yes"/>
      <point x="294" y="795" type="line" smooth="yes"/>
      <point x="295" y="795"/>
      <point x="295" y="795"/>
      <point x="295" y="794" type="curve" smooth="yes"/>
      <point x="295" y="706" type="line" smooth="yes"/>
      <point x="295" y="705"/>
      <point x="295" y="705"/>
      <point x="294" y="705" type="curve" smooth="yes"/>
      <point x="206" y="705" type="line" smooth="yes"/>
      <point x="205" y="705"/>
      <point x="205" y="705"/>
      <point x="205" y="706" type="curve" smooth="yes"/>
      <point x="205" y="794" type="line" smooth="yes"/>
      <point x="205" y="795"/>
      <point x="205" y="795"/>
      <point x="206" y="795" type="curve" smooth="yes"/>
    </contour>
    <contour>
      <point x="306" y="795" type="line" smooth="yes"/>
      <point x="394" y="795" type="line" smooth="yes"/>
      <point x="395" y="795"/>
      <point x="395" y="795"/>
      <point x="395" y="794" type="curve" smooth="yes"/>
      <point x="395" y="706" type="line" smooth="yes"/>
      <point x="395" y="705"/>
      <point x="395" y="705"/>
      <point x="394" y="705" type="curve" smooth="yes"/>
      <point x="306" y="705" type="line" smooth="yes"/>
      <point x="305" y="705"/>
      <point x="305" y="705"/>
      <point x="305" y="706" type="curve" smooth="yes"/>
      <point x="305" y="794" type="line" smooth="yes"/>
      <point x="305" y="795"/>
      <point x="305" y="795"/>
      <point x="306" y="795" type="curve" smooth="yes"/>
    </contour>
  </outline>
</glyph>
<glyph name="uni030A" format="2">
  <advance width="600"/>
  <unicode hex="030A"/>
  <outline>
    <contour>
      <point x="206" y="795" type="line" smooth="yes"/>
      <point x="294" y="795" type="line" smooth="yes"/>
      <point x="295" y="795"/>
      <point x="295" y="795"/>
      <point x="295" y="794" type="curve" smooth="yes"/>
      <point x="295" y="706" type="line" smooth="yes"/>
      <point x="295" y="705"/>
      <point x="295" y="705"/>
      <point x="294" y="705" type="curve" smooth="yes"/>
      <point x="206" y="705" type="line" smooth="yes"/>
      <point x="205" y="705"/>
      <point x="205" y="705"/>
      <point x="205" y="706" type="curve" smooth="yes"/>
      <point x="205" y="794" type="line" smooth="yes"/>
      <point x="205" y="795"/>
      <point x="205" y="795"/>
      <point x="206" y="795" type="curve" smooth="yes"/>
    </contour>
    <contour>
      <point x="106" y="695" type="line" smooth="yes"/>
      <point x="194" y="695" type="line" smooth="yes"/>
      <point x="195" y="695"/>
      <point x="195" y="695"/>
      <point x="195" y="694" type="curve" smooth="yes"/>
      <point x="195" y="606" type="line" smooth="yes"/>
      <point x="195" y="605"/>
      <point x="195" y="605"/>
      <point x="194" y="605" type="curve" smooth="yes"/>
      <point x="106" y="605" type="line" smooth="yes"/>
      <point x="105" y="605"/>
      <point x="105" y="605"/>
      <point x="105" y="606" type="curve" smooth="yes"/>
      <point x="105" y="694" type="line" smooth="yes"/>
      <point x="105" y="695"/>
      <point x="105" y="695"/>
      <point x="106" y="695" type="curve" smooth="yes"/>
    </contour>
    <contour>
      <point x="306" y="695" type="line" smooth="yes"/>
      <point x="394" y="695" type="line" smooth="yes"/>
      <point x="395" y="695"/>
      <point x="395" y="695"/>
      <point x="395" y="694" type="curve" smooth="yes"/>
      <point x="395" y="606" type="line" smooth="yes"/>
      <point x="395" y="605"/>
      <point x="395" y="605"/>
      <point x="394" y="605" type="curve" smooth="yes"/>
      <point x="306" y="605" type="line" smooth="yes"/>
      <point x="305" y="605"/>
      <point x="305" y="605"/>
      <point x="305" y="606" type="curve" smooth="yes"/>
      <point x="305" y="694" type="line" smooth="yes"/>
      <point x="305" y="695"/>
      <point x="305" y="695"/>
      <point x="306" y="695" type="curve" smooth="yes"/>
    </contour>
    <contour>
      <point x="206" y="595" type="line" smooth="yes"/>
      <point x="294" y="595" type="line" smooth="yes"/>
      <point x="295" y="595"/>
      <point x="295" y="595"/>
      <point x="295" y="594" type="curve" smooth="yes"/>
      <point x="295" y="506" type="line" smooth="yes"/>
      <point x="295" y="505"/>
      <point x="295" y="505"/>
      <point x="294" y="505" type="curve" smooth="yes"/>
      <point x="206" y="505" type="line" smooth="yes"/>
      <point x="205" y="505"/>
      <point x="205" y="505"/>
      <point x="205" y="506" type="curve" smooth="yes"/>
      <point x="205" y="594" type="line" smooth="yes"/>
      <point x="205" y="595"/>
      <point x="205" y="595"/>
      <point x="206" y="595" type="curve" smooth="yes"/>
    </contour>
  </outline>
</glyph>
<glyph name="uni0327" format="2">
  <advance width="600"/>
  <unicode hex="0327"/>
  <outline>
    <contour>
      <point x="206" y="-5" type="line" smooth="yes"/>
      <point x="294" y="-5" type="line" smooth="yes"/>
      <point x="295" y="-5"/>
      <point x="295" y="-5"/>
      <point x="295" y="-6" type="curve" smooth="yes"/>
      <point x="295" y="-94" type="line" smooth="yes"/>
      <point x="295" y="-95"/>
      <point x="295" y="-95"/>
      <point x="294" y="-95" type="curve" smooth="yes"/>
      <point x="206" y="-95" type="line" smooth="yes"/>
      <point x="205" y="-95"/>
      <point x="205" y="-95"/>
      <point x="205" y="-94" type="curve" smooth="yes"/>
      <point x="205" y="-6" type="line" smooth="yes"/>
      <point x="205" y="-5"/>
      <point x="205" y="-5"/>
      <point x="206" y="-5" type="curve" smooth="yes"/>
    </contour>
    <contour>
      <point x="106" y="-105" type="line" smooth="yes"/>
      <point x="194" y="-105" type="line" smooth="yes"/>
      <point x="195" y="-105"/>
      <point x="195" y="-105"/>
      <point x="195" y="-106" type="curve" smooth="yes"/>
      <point x="195" y="-194" type="line" smooth="yes"/>
      <point x="195" y="-195"/>
      <point x="195" y="-195"/>
      <point x="194" y="-195" type="curve" smooth="yes"/>
      <point x="106" y="-195" type="line" smooth="yes"/>
      <point x="105" y="-195"/>
      <point x="105" y="-195"/>
      <point x="105" y="-194" type="curve" smooth="yes"/>
      <point x="105" y="-106" type="line" smooth="yes"/>
      <point x="105" y="-105"/>
      <point x="105" y="-105"/>
      <point x="106" y="-105" type="curve" smooth="yes"/>
    </contour>
  </outline>
</glyph>
<glyph name="uni0328" format="2">
  <advance width="600"/>
  <unicode hex="0328"/>
  <outline>
    <contour>
      <point x="206" y="-5" type="line" smooth="yes"/>
      <point x="294" y="-5" type="line" smooth="yes"/>
      <point x="295" y="-5"/>
      <point x="295" y="-5"/>
      <point x="295" y="-6" type="curve" smooth="yes"/>
      <point x="295" y="-94" type="line" smooth="yes"/>
      <point x="295" y="-95"/>
      <point x="295" y="-95"/>
      <point x="294" y="-95" type="curve" smooth="yes"/>
      <point x="206" y="-95" type="line" smooth="yes"/>
      <point x="205" y="-95"/>
      <point x="205" y="-95"/>
      <point x="205" y="-94" type="curve" smooth="yes"/>
      <point x="205" y="-6" type="line" smooth="yes"/>
      <point x="205" y="-5"/>
      <point x="205" y="-5"/>
      <point x="206" y="-5" type="curve" smooth="yes"/>
    </contour>
    <contour>
      <point x="206" y="-105" type="line" smooth="yes"/>
      <point x="294" y="-105" type="line" smooth="yes"/>
      <point x="295" y="-105"/>
      <point x="295" y="-105"/>
      <point x="295" y="-106" type="curve" smooth="yes"/>
      <point x="295" y="-194" type="line" smooth="yes"/>
      <point x="295" y="-195"/>
      <point x="295" y="-195"/>
      <point x="294" y="-195" type="curve" smooth="yes"/>
      <point x="206" y="-195" type="line" smooth="yes"/>
      <point x="205" y="-195"/>
      <point x="205" y="-195"/>
      <point x="205" y="-194" type="curve" smooth="yes"/>
      <point x="205" y="-106" type="line" smooth="yes"/>
      <point x="205" y="-105"/>
      <point x="205" y="-105"/>
      <point x="206" y="-105" type="curve" smooth="yes"/>
    </contour>
    <contour>
      <point x="306" y="-105" type="line" smooth="yes"/>
      <point x="394" y="-105" type="line" smooth="yes"/>
      <point x="395" y="-105"/>
      <point x="395" y="-105"/>
      <point x="395" y="-106" type="curve" smooth="yes"/>
      <point x="395" y="-194" type="line" smooth="yes"/>
      <point x="395" y="-195"/>
      <point x="395" y="-195"/>
      <point x="394" y="-195" type="curve" smooth="yes"/>
      <point x="306" y="-195" type="line" smooth="yes"/>
      <point x="305" y="-195"/>
      <point x="305" y="-195"/>
      <point x="305" y="-194" type="curve" smooth="yes"/>
      <point x="305" y="-106" type="line" smooth="yes"/>
      <point x="305" y="-105"/>
      <point x="305" y="-105"/>
      <point x="306" y="-105" type="curve" smooth="yes"/>
    </contour>
  </outline>
</glyph>
<glyph name="quotedblright" format="2">
  <advance width="600"/>
  <unicode hex="201D"/>
  <outline>
    <contour>
      <point x="6" y="695" type="line" smooth="yes"/>
      <point x="94" y="695" type="line" smooth="yes"/>
      <point x="95" y="695"/>
      <point x="95" y="695"/>
      <point x="95" y="694" type="curve" smooth="yes"/>
      <point x="95" y="606" type="line" smooth="yes"/>
      <point x="95" y="605"/>
      <point x="95" y="605"/>
      <point x="94" y="605" type="curve" smooth="yes"/>
      <point x="6" y="605" type="line" smooth="yes"/>
      <point x="5" y="605"/>
      <point x="5" y="605"/>
      <point x="5" y="606" type="curve" smooth="yes"/>
      <point x="5" y="694" type="line" smooth="yes"/>
      <point x="5" y="695"/>
      <point x="5" y="695"/>
      <point x="6" y="695" type="curve" smooth="yes"/>
    </contour>
    <contour>
      <point x="106" y="695" type="line" smooth="yes"/>
      <point x="194" y="695" type="line" smooth="yes"/>
      <point x="195" y="695"/>
      <point x="195" y="695"/>
      <point x="195" y="694" type="curve" smooth="yes"/>
      <point x="195" y="606" type="line" smooth="yes"/>
      <point x="195" y="605"/>
      <point x="195" y="605"/>
      <point x="194" y="605" type="curve" smooth="yes"/>
      <point x="106" y="605" type="line" smooth="yes"/>
      <point x="105" y="605"/>
      <point x="105" y="605"/>
      <point x="105" y="606" type="curve" smooth="yes"/>
      <point x="105" y="694" type="line" smooth="yes"/>
      <point x="105" y="695"/>
      <point x="105" y="695"/>
      <point x="106" y="695" type="curve" smooth="yes"/>
    </contour>
    <contour>
      <point x="306" y="695" type="line" smooth="yes"/>
      <point x="394" y="695" type="line" smooth="yes"/>
      <point x="395" y="695"/>
      <point x="395" y="695"/>
      <point x="395" y="694" type="curve" smooth="yes"/>
      <point x="395" y="606" type="line" smooth="yes"/>
      <point x="395" y="605"/>
      <point x="395" y="605"/>
      <point x="394" y="605" type="curve" smooth="yes"/>
      <point x="306" y="605" type="line" smooth="yes"/>
      <point x="305" y="605"/>
      <point x="305" y="605"/>
      <point x="305" y="606" type="curve" smooth="yes"/>
      <point x="305" y="694" type="line" smooth="yes"/>
      <point x="305" y="695"/>
      <point x="305" y="695"/>
      <point x="306" y="695" type="curve" smooth="yes"/>
    </contour>
    <contour>
      <point x="406" y="695" type="line" smooth="yes"/>
      <point x="494" y="695" type="line" smooth="yes"/>
      <point x="495" y="695"/>
      <point x="495" y="695"/>
      <point x="495" y="694" type="curve" smooth="yes"/>
      <point x="495" y="606" type="line" smooth="yes"/>
      <point x="495" y="605"/>
      <point x="495" y="605"/>
      <point x="494" y="605" type="curve" smooth="yes"/>
      <point x="406" y="605" type="line" smooth="yes"/>
      <point x="405" y="605"/>
      <point x="405" y="605"/>
      <point x="405" y="606" type="curve" smooth="yes"/>
      <point x="405" y="694" type="line" smooth="yes"/>
      <point x="405" y="695"/>
      <point x="405" y="695"/>
      <point x="406" y="695" type="curve" smooth="yes"/>
    </contour>
    <contour>
      <point x="106" y="595" type="line" smooth="yes"/>
      <point x="194" y="595" type="line" smooth="yes"/>
      <point x="195" y="595"/>
      <point x="195" y="595"/>
      <point x="195" y="594" type="curve" smooth="yes"/>
      <point x="195" y="506" type="line" smooth="yes"/>
      <point x="195" y="505"/>
      <point x="195" y="505"/>
      <point x="194" y="505" type="curve" smooth="yes"/>
      <point x="106" y="505" type="line" smooth="yes"/>
      <point x="105" y="505"/>
      <point x="105" y="505"/>
      <point x="105" y="506" type="curve" smooth="yes"/>
      <point x="105" y="594" type="line" smooth="yes"/>
      <point x="105" y="595"/>
      <point x="105" y="595"/>
      <point x="106" y="595" type="curve" smooth="yes"/>
    </contour>
    <contour>
      <point x="406" y="595" type="line" smooth="yes"/>
      <point x="494" y="595" type="line" smooth="yes"/>
      <point x="495" y="595"/>
      <point x="495" y="595"/>
      <point x="495" y="594" type="curve" smooth="yes"/>
      <point x="495" y="506" type="line" smooth="yes"/>
      <point x="495" y="505"/>
      <point x="495" y="505"/>
      <point x="494" y="505" type="curve" smooth="yes"/>
      <point x="406" y="505" type="line" smooth="yes"/>
      <point x="405" y="505"/>
      <point x="405" y="505"/>
      <point x="405" y="506" type="curve" smooth="yes"/>
      <point x="405" y="594" type="line" smooth="yes"/>
      <point x="405" y="595"/>
      <point x="405" y="595"/>
      <point x="406" y="595" type="curve" smooth="yes"/>
    </contour>
    <contour>
      <point x="6" y="495" type="line" smooth="yes"/>
      <point x="94" y="495" type="line" smooth="yes"/>
      <point x="95" y="495"/>
      <point x="95" y="495"/>
      <point x="95" y="494" type="curve" smooth="yes"/>
      <point x="95" y="406" type="line" smooth="yes"/>
      <point x="95" y="405"/>
      <point x="95" y="405"/>
      <point x="94" y="405" type="curve" smooth="yes"/>
      <point x="6" y="405" type="line" smooth="yes"/>
      <point x="5" y="405"/>
      <point x="5" y="405"/>
      <point x="5" y="406" type="curve" smooth="yes"/>
      <point x="5" y="494" type="line" smooth="yes"/>
      <point x="5" y="495"/>
      <point x="5" y="495"/>
      <point x="6" y="495" type="curve" smooth="yes"/>
    </contour>
    <contour>
      <point x="306" y="495" type="line" smooth="yes"/>
      <point x="394" y="495" type="line" smooth="yes"/>
      <point x="395" y="495"/>
      <point x="395" y="495"/>
      <point x="395" y="494" type="curve" smooth="yes"/>
      <point x="395" y="406" type="line" smooth="yes"/>
      <point x="395" y="405"/>
      <point x="395" y="405"/>
      <point x="394" y="405" type="curve" smooth="yes"/>
      <point x="306" y="405" type="line" smooth="yes"/>
      <point x="305" y="405"/>
      <point x="305" y="405"/>
      <point x="305" y="406" type="curve" smooth="yes"/>
      <point x="305" y="494" type="line" smooth="yes"/>
      <point x="305" y="495"/>
      <point x="305" y="495"/>
      <point x="306" y="495" type="curve" smooth="yes"/>
    </contour>
  </outline>
</glyph>
<glyph name="quotedblbase" format="2">
  <advance width="600"/>
  <unicode hex="201E"/>
  <outline>
    <contour>
      <point x="6" y="195" type="line" smooth="yes"/>
      <point x="94" y="195" type="line" smooth="yes"/>
      <point x="95" y="195"/>
      <point x="95" y="195"/>
      <point x="95" y="194" type="curve" smooth="yes"/>
      <point x="95" y="106" type="line" smooth="yes"/>
      <point x="95" y="105"/>
      <point x="95" y="105"/>
      <point x="94" y="105" type="curve" smooth="yes"/>
      <point x="6" y="105" type="line" smooth="yes"/>
      <point x="5" y="105"/>
      <point x="5" y="105"/>
      <point x="5" y="106" type="curve" smooth="yes"/>
      <point x="5" y="194" type="line" smooth="yes"/>
      <point x="5" y="195"/>
      <point x="5" y="195"/>
      <point x="6" y="195" type="curve" smooth="yes"/>
    </contour>
    <contour>
      <point x="106" y="195" type="line" smooth="yes"/>
      <point x="194" y="195" type="line" smooth="yes"/>
      <point x="195" y="195"/>
      <point x="195" y="195"/>
      <point x="195" y="194" type="curve" smooth="yes"/>
      <point x="195" y="106" type="line" smooth="yes"/>
      <point x="195" y="105"/>
      <point x="195" y="105"/>
      <point x="194" y="105" type="curve" smooth="yes"/>
      <point x="106" y="105" type="line" smooth="yes"/>
      <point x="105" y="105"/>
      <point x="105" y="105"/>
      <point x="105" y="106" type="curve" smooth="yes"/>
      <point x="105" y="194" type="line" smooth="yes"/>
      <point x="105" y="195"/>
      <point x="105" y="195"/>
      <point x="106" y="195" type="curve" smooth="yes"/>
    </contour>
    <contour>
      <point x="306" y="195" type="line" smooth="yes"/>
      <point x="394" y="195" type="line" smooth="yes"/>
      <point x="395" y="195"/>
      <point x="395" y="195"/>
      <point x="395" y="194" type="curve" smooth="yes"/>
      <point x="395" y="106" type="line" smooth="yes"/>
      <point x="395" y="105"/>
      <point x="395" y="105"/>
      <point x="394" y="105" type="curve" smooth="yes"/>
      <point x="306" y="105" type="line" smooth="yes"/>
      <point x="305" y="105"/>
      <point x="305" y="105"/>
      <point x="305" y="106" type="curve" smooth="yes"/>
      <point x="305" y="194" type="line" smooth="yes"/>
      <point x="305" y="195"/>
      <point x="305" y="195"/>
      <point x="306" y="195" type="curve" smooth="yes"/>
    </contour>
    <contour>
      <point x="406" y="195" type="line" smooth="yes"/>
      <point x="494" y="195" type="line" smooth="yes"/>
      <point x="495" y="195"/>
      <point x="495" y="195"/>
      <point x="495" y="194" type="curve" smooth="yes"/>
      <point x="495" y="106" type="line" smooth="yes"/>
      <point x="495" y="105"/>
      <point x="495" y="105"/>
      <point x="494" y="105" type="curve" smooth="yes"/>
      <point x="406" y="105" type="line" smooth="yes"/>
      <point x="405" y="105"/>
      <point x="405" y="105"/>
      <point x="405" y="106" type="curve" smooth="yes"/>
      <point x="405" y="194" type="line" smooth="yes"/>
      <point x="405" y="195"/>
      <point x="405" y="195"/>
      <point x="406" y="195" type="curve" smooth="yes"/>
    </contour>
    <contour>
      <point x="106" y="95" type="line" smooth="yes"/>
      <point x="194" y="95" type="line" smooth="yes"/>
      <point x="195" y="95"/>
      <point x="195" y="95"/>
      <point x="195" y="94" type="curve" smooth="yes"/>
      <point x="195" y="6" type="line" smooth="yes"/>
      <point x="195" y="5"/>
      <point x="195" y="5"/>
      <point x="194" y="5" type="curve" smooth="yes"/>
      <point x="106" y="5" type="line" smooth="yes"/>
      <point x="105" y="5"/>
      <point x="105" y="5"/>
      <point x="105" y="6" type="curve" smooth="yes"/>
      <point x="105" y="94" type="line" smooth="yes"/>
      <point x="105" y="95"/>
      <point x="105" y="95"/>
      <point x="106" y="95" type="curve" smooth="yes"/>
    </contour>
    <contour>
      <point x="406" y="95" type="line" smooth="yes"/>
      <point x="494" y="95" type="line" smooth="yes"/>
      <point x="495" y="95"/>
      <point x="495" y="95"/>
      <point x="495" y="94" type="curve" smooth="yes"/>
      <point x="495" y="6" type="line" smooth="yes"/>
      <point x="495" y="5"/>
      <point x="495" y="5"/>
      <point x="494" y="5" type="curve" smooth="yes"/>
      <point x="406" y="5" type="line" smooth="yes"/>
      <point x="405" y="5"/>
      <point x="405" y="5"/>
      <point x="405" y="6" type="curve" smooth="yes"/>
      <point x="405" y="94" type="line" smooth="yes"/>
      <point x="405" y="95"/>
      <point x="405" y="95"/>
      <point x="406" y="95" type="curve" smooth="yes"/>
    </contour>
    <contour>
      <point x="6" y="-5" type="line" smooth="yes"/>
      <point x="94" y="-5" type="line" smooth="yes"/>
      <point x="95" y="-5"/>
      <point x="95" y="-5"/>
      <point x="95" y="-6" type="curve" smooth="yes"/>
      <point x="95" y="-94" type="line" smooth="yes"/>
      <point x="95" y="-95"/>
      <point x="95" y="-95"/>
      <point x="94" y="-95" type="curve" smooth="yes"/>
      <point x="6" y="-95" type="line" smooth="yes"/>
      <point x="5" y="-95"/>
      <point x="5" y="-95"/>
      <point x="5" y="-94" type="curve" smooth="yes"/>
      <point x="5" y="-6" type="line" smooth="yes"/>
      <point x="5" y="-5"/>
      <point x="5" y="-5"/>
      <point x="6" y="-5" type="curve" smooth="yes"/>
    </contour>
    <contour>
      <point x="306" y="-5" type="line" smooth="yes"/>
      <point x="394" y="-5" type="line" smooth="yes"/>
      <point x="395" y="-5"/>
      <point x="395" y="-5"/>
      <point x="395" y="-6" type="curve" smooth="yes"/>
      <point x="395" y="-94" type="line" smooth="yes"/>
      <point x="395" y="-95"/>
      <point x="395" y="-95"/>
      <point x="394" y="-95" type="curve" smooth="yes"/>
      <point x="306" y="-95" type="line" smooth="yes"/>
      <point x="305" y="-95"/>
      <point x="305" y="-95"/>
      <point x="305" y="-94" type="curve" smooth="yes"/>
      <point x="305" y="-6" type="line" smooth="yes"/>
      <point x="305" y="-5"/>
      <point x="305" y="-5"/>
      <point x="306" y="-5" type="curve" smooth="yes"/>
    </contour>
  </outline>
</glyph>
<glyph name="trademark" format="2">
  <advance width="600"/>
  <unicode hex="2122"/>
  <outline>
    <contour>
      <point x="6" y="795" type="line" smooth="yes"/>
      <point x="94" y="795" type="line" smooth="yes"/>
      <point x="95" y="795"/>
      <point x="95" y="795"/>
      <point x="95" y="794" type="curve" smooth="yes"/>
      <point x="95" y="706" type="line" smooth="yes"/>
      <point x="95" y="705"/>
      <point x="95" y="705"/>
      <point x="94" y="705" type="curve" smooth="yes"/>
      <point x="6" y="705" type="line" smooth="yes"/>
      <point x="5" y="705"/>
      <point x="5" y="705"/>
      <point x="5" y="706" type="curve" smooth="yes"/>
      <point x="5" y="794" type="line" smooth="yes"/>
      <point x="5" y="795"/>
      <point x="5" y="795"/>
      <point x="6" y="795" type="curve" smooth="yes"/>
    </contour>
    <contour>
      <point x="106" y="795" type="line" smooth="yes"/>
      <point x="194" y="795" type="line" smooth="yes"/>
      <point x="195" y="795"/>
      <point x="195" y="795"/>
      <point x="195" y="794" type="curve" smooth="yes"/>
      <point x="195" y="706" type="line" smooth="yes"/>
      <point x="195" y="705"/>
      <point x="195" y="705"/>
      <point x="194" y="705" type="curve" smooth="yes"/>
      <point x="106" y="705" type="line" smooth="yes"/>
      <point x="105" y="705"/>
      <point x="105" y="705"/>
      <point x="105" y="706" type="curve" smooth="yes"/>
      <point x="105" y="794" type="line" smooth="yes"/>
      <point x="105" y="795"/>
      <point x="105" y="795"/>
      <point x="106" y="795" type="curve" smooth="yes"/>
    </contour>
    <contour>
      <point x="206" y="795" type="line" smooth="yes"/>
      <point x="294" y="795" type="line" smooth="yes"/>
      <point x="295" y="795"/>
      <point x="295" y="795"/>
      <point x="295" y="794" type="curve" smooth="yes"/>
      <point x="295" y="706" type="line" smooth="yes"/>
      <point x="295" y="705"/>
      <point x="295" y="705"/>
      <point x="294" y="705" type="curve" smooth="yes"/>
      <point x="206" y="705" type="line" smooth="yes"/>
      <point x="205" y="705"/>
      <point x="205" y="705"/>
      <point x="205" y="706" type="curve" smooth="yes"/>
      <point x="205" y="794" type="line" smooth="yes"/>
      <point x="205" y="795"/>
      <point x="205" y="795"/>
      <point x="206" y="795" type="curve" smooth="yes"/>
    </contour>
    <contour>
      <point x="306" y="795" type="line" smooth="yes"/>
      <point x="394" y="795" type="line" smooth="yes"/>
      <point x="395" y="795"/>
      <point x="395" y="795"/>
      <point x="395" y="794" type="curve" smooth="yes"/>
      <point x="395" y="706" type="line" smooth="yes"/>
      <point x="395" y="705"/>
      <point x="395" y="705"/>
      <point x="394" y="705" type="curve" smooth="yes"/>
      <point x="306" y="705" type="line" smooth="yes"/>
      <point x="305" y="705"/>
      <point x="305" y="705"/>
      <point x="305" y="706" type="curve" smooth="yes"/>
      <point x="305" y="794" type="line" smooth="yes"/>
      <point x="305" y="795"/>
      <point x="305" y="795"/>
      <point x="306" y="795" type="curve" smooth="yes"/>
    </contour>
    <contour>
      <point x="406" y="795" type="line" smooth="yes"/>
      <point x="494" y="795" type="line" smooth="yes"/>
      <point x="495" y="795"/>
      <point x="495" y="795"/>
      <point x="495" y="794" type="curve" smooth="yes"/>
      <point x="495" y="706" type="line" smooth="yes"/>
      <point x="495" y="705"/>
      <point x="495" y="705"/>
      <point x="494" y="705" type="curve" smooth="yes"/>
      <point x="406" y="705" type="line" smooth="yes"/>
      <point x="405" y="705"/>
      <point x="405" y="705"/>
      <point x="405" y="706" type="curve" smooth="yes"/>
      <point x="405" y="794" type="line" smooth="yes"/>
      <point x="405" y="795"/>
      <point x="405" y="795"/>
      <point x="406" y="795" type="curve" smooth="yes"/>
    </contour>
    <contour>
      <point x="506" y="795" type="line" smooth="yes"/>
      <point x="594" y="795" type="line" smooth="yes"/>
      <point x="595" y="795"/>
      <point x="595" y="795"/>
      <point x="595" y="794" type="curve" smooth="yes"/>
      <point x="595" y="706" type="line" smooth="yes"/>
      <point x="595" y="705"/>
      <point x="595" y="705"/>
      <point x="594" y="705" type="curve" smooth="yes"/>
      <point x="506" y="705" type="line" smooth="yes"/>
      <point x="505" y="705"/>
      <point x="505" y="705"/>
      <point x="505" y="706" type="curve" smooth="yes"/>
      <point x="505" y="794" type="line" smooth="yes"/>
      <point x="505" y="795"/>
      <point x="505" y="795"/>
      <point x="506" y="795" type="curve" smooth="yes"/>
    </contour>
    <contour>
      <point x="106" y="695" type="line" smooth="yes"/>
      <point x="194" y="695" type="line" smooth="yes"/>
      <point x="195" y="695"/>
      <point x="195" y="695"/>
      <point x="195" y="694" type="curve" smooth="yes"/>
      <point x="195" y="606" type="line" smooth="yes"/>
      <point x="195" y="605"/>
      <point x="195" y="605"/>
      <point x="194" y="605" type="curve" smooth="yes"/>
      <point x="106" y="605" type="line" smooth="yes"/>
      <point x="105" y="605"/>
      <point x="105" y="605"/>
      <point x="105" y="606" type="curve" smooth="yes"/>
      <point x="105" y="694" type="line" smooth="yes"/>
      <point x="105" y="695"/>
      <point x="105" y="695"/>
      <point x="106" y="695" type="curve" smooth="yes"/>
    </contour>
    <contour>
      <point x="306" y="695" type="line" smooth="yes"/>
      <point x="394" y="695" type="line" smooth="yes"/>
      <point x="395" y="695"/>
      <point x="395" y="695"/>
      <point x="395" y="694" type="curve" smooth="yes"/>
      <point x="395" y="606" type="line" smooth="yes"/>
      <point x="395" y="605"/>
      <point x="395" y="605"/>
      <point x="394" y="605" type="curve" smooth="yes"/>
      <point x="306" y="605" type="line" smooth="yes"/>
      <point x="305" y="605"/>
      <point x="305" y="605"/>
      <point x="305" y="606" type="curve" smooth="yes"/>
      <point x="305" y="694" type="line" smooth="yes"/>
      <point x="305" y="695"/>
      <point x="305" y="695"/>
      <point x="306" y="695" type="curve" smooth="yes"/>
    </contour>
    <contour>
      <point x="406" y="695" type="line" smooth="yes"/>
      <point x="494" y="695" type="line" smooth="yes"/>
      <point x="495" y="695"/>
      <point x="495" y="695"/>
      <point x="495" y="694" type="curve" smooth="yes"/>
      <point x="495" y="606" type="line" smooth="yes"/>
      <point x="495" y="605"/>
      <point x="495" y="605"/>
      <point x="494" y="605" type="curve" smooth="yes"/>
      <point x="406" y="605" type="line" smooth="yes"/>
      <point x="405" y="605"/>
      <point x="405" y="605"/>
      <point x="405" y="606" type="curve" smooth="yes"/>
      <point x="405" y="694" type="line" smooth="yes"/>
      <point x="405" y="695"/>
      <point x="405" y="695"/>
      <point x="406" y="695" type="curve" smooth="yes"/>
    </contour>
    <contour>
      <point x="506" y="695" type="line" smooth="yes"/>
      <point x="594" y="695" type="line" smooth="yes"/>
      <point x="595" y="695"/>
      <point x="595" y="695"/>
      <point x="595" y="694" type="curve" smooth="yes"/>
      <point x="595" y="606" type="line" smooth="yes"/>
      <point x="595" y="605"/>
      <point x="595" y="605"/>
      <point x="594" y="605" type="curve" smooth="yes"/>
      <point x="506" y="605" type="line" smooth="yes"/>
      <point x="505" y="605"/>
      <point x="505" y="605"/>
      <point x="505" y="606" type="curve" smooth="yes"/>
      <point x="505" y="694" type="line" smooth="yes"/>
      <point x="505" y="695"/>
      <point x="505" y="695"/>
      <point x="506" y="695" type="curve" smooth="yes"/>
    </contour>
    <contour>
      <point x="106" y="595" type="line" smooth="yes"/>
      <point x="194" y="595" type="line" smooth="yes"/>
      <point x="195" y="595"/>
      <point x="195" y="595"/>
      <point x="195" y="594" type="curve" smooth="yes"/>
      <point x="195" y="506" type="line" smooth="yes"/>
      <point x="195" y="505"/>
      <point x="195" y="505"/>
      <point x="194" y="505" type="curve" smooth="yes"/>
      <point x="106" y="505" type="line" smooth="yes"/>
      <point x="105" y="505"/>
      <point x="105" y="505"/>
      <point x="105" y="506" type="curve" smooth="yes"/>
      <point x="105" y="594" type="line" smooth="yes"/>
      <point x="105" y="595"/>
      <point x="105" y="595"/>
      <point x="106" y="595" type="curve" smooth="yes"/>
    </contour>
    <contour>
      <point x="306" y="595" type="line" smooth="yes"/>
      <point x="394" y="595" type="line" smooth="yes"/>
      <point x="395" y="595"/>
      <point x="395" y="595"/>
      <point x="395" y="594" type="curve" smooth="yes"/>
      <point x="395" y="506" type="line" smooth="yes"/>
      <point x="395" y="505"/>
      <point x="395" y="505"/>
      <point x="394" y="505" type="curve" smooth="yes"/>
      <point x="306" y="505" type="line" smooth="yes"/>
      <point x="305" y="505"/>
      <point x="305" y="505"/>
      <point x="305" y="506" type="curve" smooth="yes"/>
      <point x="305" y="594" type="line" smooth="yes"/>
      <point x="305" y="595"/>
      <point x="305" y="595"/>
      <point x="306" y="595" type="curve" smooth="yes"/>
    </contour>
    <contour>
      <point x="506" y="595" type="line" smooth="yes"/>
      <point x="594" y="595" type="line" smooth="yes"/>
      <point x="595" y="595"/>
      <point x="595" y="595"/>
      <point x="595" y="594" type="curve" smooth="yes"/>
      <point x="595" y="506" type="line" smooth="yes"/>
      <point x="595" y="505"/>
      <point x="595" y="505"/>
      <point x="594" y="505" type="curve" smooth="yes"/>
      <point x="506" y="505" type="line" smooth="yes"/>
      <point x="505" y="505"/>
      <point x="505" y="505"/>
      <point x="505" y="506" type="curve" smooth="yes"/>
      <point x="505" y="594" type="line" smooth="yes"/>
      <point x="505" y="595"/>
      <point x="505" y="595"/>
      <point x="506" y="595" type="curve" smooth="yes"/>
    </contour>
    <contour>
      <point x="106" y="495" type="line" smooth="yes"/>
      <point x="194" y="495" type="line" smooth="yes"/>
      <point x="195" y="495"/>
      <point x="195" y="495"/>
      <point x="195" y="494" type="curve" smooth="yes"/>
      <point x="195" y="406" type="line" smooth="yes"/>
      <point x="195" y="405"/>
      <point x="195" y="405"/>
      <point x="194" y="405" type="curve" smooth="yes"/>
      <point x="106" y="405" type="line" smooth="yes"/>
      <point x="105" y="405"/>
      <point x="105" y="405"/>
      <point x="105" y="406" type="curve" smooth="yes"/>
      <point x="105" y="494" type="line" smooth="yes"/>
      <point x="105" y="495"/>
      <point x="105" y="495"/>
      <point x="106" y="495" type="curve" smooth="yes"/>
    </contour>
    <contour>
      <point x="306" y="495" type="line" smooth="yes"/>
      <point x="394" y="495" type="line" smooth="yes"/>
      <point x="395" y="495"/>
      <point x="395" y="495"/>
      <point x="395" y="494" type="curve" smooth="yes"/>
      <point x="395" y="406" type="line" smooth="yes"/>
      <point x="395" y="405"/>
      <point x="395" y="405"/>
      <point x="394" y="405" type="curve" smooth="yes"/>
      <point x="306" y="405" type="line" smooth="yes"/>
      <point x="305" y="405"/>
      <point x="305" y="405"/>
      <point x="305" y="406" type="curve" smooth="yes"/>
      <point x="305" y="494" type="line" smooth="yes"/>
      <point x="305" y="495"/>
      <point x="305" y="495"/>
      <point x="306" y="495" type="curve" smooth="yes"/>
    </contour>
    <contour>
      <point x="506" y="495" type="line" smooth="yes"/>
      <point x="594" y="495" type="line" smooth="yes"/>
      <point x="595" y="495"/>
      <point x="595" y="495"/>
      <point x="595" y="494" type="curve" smooth="yes"/>
      <point x="595" y="406" type="line" smooth="yes"/>
      <point x="595" y="405"/>
      <point x="595" y="405"/>
      <point x="594" y="405" type="curve" smooth="yes"/>
      <point x="506" y="405" type="line" smooth="yes"/>
      <point x="505" y="405"/>
      <point x="505" y="405"/>
      <point x="505" y="406" type="curve" smooth="yes"/>
      <point x="505" y="494" type="line" smooth="yes"/>
      <point x="505" y="495"/>
      <point x="505" y="495"/>
      <point x="506" y="495" type="curve" smooth="yes"/>
    </contour>
  </outline>
</glyph>
<glyph name="minus" format="2">
  <advance width="600"/>
  <unicode hex="2212"/>
  <outline>
    <contour>
      <point x="6" y="395" type="line" smooth="yes"/>
      <point x="94" y="395" type="line" smooth="yes"/>
      <point x="95" y="395"/>
      <point x="95" y="395"/>
      <point x="95" y="394" type="curve" smooth="yes"/>
      <point x="95" y="306" type="line" smooth="yes"/>
      <point x="95" y="305"/>
      <point x="95" y="305"/>
      <point x="94" y="305" type="curve" smooth="yes"/>
      <point x="6" y="305" type="line" smooth="yes"/>
      <point x="5" y="305"/>
      <point x="5" y="305"/>
      <point x="5" y="306" type="curve" smooth="yes"/>
      <point x="5" y="394" type="line" smooth="yes"/>
      <point x="5" y="395"/>
      <point x="5" y="395"/>
      <point x="6" y="395" type="curve" smooth="yes"/>
    </contour>
    <contour>
      <point x="106" y="395" type="line" smooth="yes"/>
      <point x="194" y="395" type="line" smooth="yes"/>
      <point x="195" y="395"/>
      <point x="195" y="395"/>
      <point x="195" y="394" type="curve" smooth="yes"/>
      <point x="195" y="306" type="line" smooth="yes"/>
      <point x="195" y="305"/>
      <point x="195" y="305"/>
      <point x="194" y="305" type="curve" smooth="yes"/>
      <point x="106" y="305" type="line" smooth="yes"/>
      <point x="105" y="305"/>
      <point x="105" y="305"/>
      <point x="105" y="306" type="curve" smooth="yes"/>
      <point x="105" y="394" type="line" smooth="yes"/>
      <point x="105" y="395"/>
      <point x="105" y="395"/>
      <point x="106" y="395" type="curve" smooth="yes"/>
    </contour>
    <contour>
      <point x="206" y="395" type="line" smooth="yes"/>
      <point x="294" y="395" type="line" smooth="yes"/>
      <point x="295" y="395"/>
      <point x="295" y="395"/>
      <point x="295" y="394" type="curve" smooth="yes"/>
      <point x="295" y="306" type="line" smooth="yes"/>
      <point x="295" y="305"/>
      <point x="295" y="305"/>
      <point x="294" y="305" type="curve" smooth="yes"/>
      <point x="206" y="305" type="line" smooth="yes"/>
      <point x="205" y="305"/>
      <point x="205" y="305"/>
      <point x="205" y="306" type="curve" smooth="yes"/>
      <point x="205" y="394" type="line" smooth="yes"/>
      <point x="205" y="395"/>
      <point x="205" y="395"/>
      <point x="206" y="395" type="curve" smooth="yes"/>
    </contour>
    <contour>
      <point x="306" y="395" type="line" smooth="yes"/>
      <point x="394" y="395" type="line" smooth="yes"/>
      <point x="395" y="395"/>
      <point x="395" y="395"/>
      <point x="395" y="394" type="curve" smooth="yes"/>
      <point x="395" y="306" type="line" smooth="yes"/>
      <point x="395" y="305"/>
      <point x="395" y="305"/>
      <point x="394" y="305" type="curve" smooth="yes"/>
      <point x="306" y="305" type="line" smooth="yes"/>
      <point x="305" y="305"/>
      <point x="305" y="305"/>
      <point x="305" y="306" type="curve" smooth="yes"/>
      <point x="305" y="394" type="line" smooth="yes"/>
      <point x="305" y="395"/>
      <point x="305" y="395"/>
      <point x="306" y="395" type="curve" smooth="yes"/>
    </contour>
    <contour>
      <point x="406" y="395" type="line" smooth="yes"/>
      <point x="494" y="395" type="line" smooth="yes"/>
      <point x="495" y="395"/>
      <point x="495" y="395"/>
      <point x="495" y="394" type="curve" smooth="yes"/>
      <point x="495" y="306" type="line" smooth="yes"/>
      <point x="495" y="305"/>
      <point x="495" y="305"/>
      <point x="494" y="305" type="curve" smooth="yes"/>
      <point x="406" y="305" type="line" smooth="yes"/>
      <point x="405" y="305"/>
      <point x="405" y="305"/>
      <point x="405" y="306" type="curve" smooth="yes"/>
      <point x="405" y="394" type="line" smooth="yes"/>
      <point x="405" y="395"/>
      <point x="405" y="395"/>
      <point x="406" y="395" type="curve" smooth="yes"/>
    </contour>
  </outline>
</glyph>
